<svg width="128" height="60" viewBox="0 0 128 60" fill="none" xmlns="http://www.w3.org/2000/svg">
<path d="M95.5342 31.3383C81.1369 31.3383 69.3655 24.6738 69.3655 16.5172C69.3655 8.36054 81.0463 1.69598 95.5342 1.69598C110.022 1.69598 121.703 8.36054 121.703 16.5172C121.703 24.6738 110.022 31.3383 95.5342 31.3383Z" fill="#DA2228"/>
<path d="M95.5344 1C80.8655 1 69.0036 7.96297 69.0036 16.5175C69.0036 25.072 80.8655 32.0349 95.5344 32.0349C110.203 32.0349 122.065 25.072 122.065 16.5175C122.065 7.96297 110.203 1 95.5344 1ZM95.5344 29.8466C81.3182 29.8466 69.728 23.8783 69.728 16.5175C69.728 9.15662 81.3182 3.18836 95.5344 3.18836C109.751 3.18836 121.341 9.15662 121.341 16.5175C121.341 23.8783 109.841 29.8466 95.5344 29.8466Z" fill="#FFEEAB" stroke="#DA2228" stroke-width="0.589608"/>
<path d="M88.5621 12.3397C88.9243 12.1408 89.196 12.1408 89.196 12.1408C88.9243 12.7376 88.6527 13.6328 88.6527 14.2297C88.7432 15.3239 89.5581 15.2244 90.2825 14.8265C90.2825 14.8265 90.4636 14.727 90.6447 14.5281C90.7353 15.3239 91.4597 15.3239 92.9085 13.9313C92.999 15.1249 93.7234 15.1249 93.9951 15.1249C94.4478 15.1249 95.4438 14.727 96.0777 14.1302L95.6249 15.1249H96.5304L97.3454 13.036C97.4359 13.036 98.3414 13.036 98.3414 13.036C98.1603 13.6328 98.0698 13.8318 97.8887 14.1302C97.617 14.8265 97.9792 15.1249 98.2509 15.1249C98.7941 15.1249 99.1563 14.8265 99.7902 14.3291C99.7902 15.3239 101.148 15.2244 101.782 14.8265C101.782 14.8265 102.959 14.2297 103.14 12.6381C103.14 12.6381 103.684 12.5387 103.865 12.2403L103.14 14.0307C102.507 15.7217 104.046 15.0254 104.589 14.6276C104.861 14.4286 105.042 14.3291 105.042 14.3291C104.77 15.9207 106.672 14.727 107.034 14.3291C107.034 14.3291 106.853 15.2244 107.487 15.1249C108.121 15.0254 108.664 14.727 109.298 13.9313L109.207 13.8318C108.483 14.727 107.577 15.0254 107.94 14.1302L109.207 10.7482H108.392L107.215 13.8318C106.944 14.2297 106.853 14.3291 106.491 14.5281C106.129 14.727 105.857 14.727 106.129 13.9313L107.306 10.7482H106.491L105.314 13.7323C104.951 14.1302 104.68 14.3291 104.408 14.4286C103.955 14.6276 103.684 14.727 104.046 13.8318L105.223 10.6487H104.408L104.227 11.1461C103.955 12.0413 103.14 12.2403 103.14 12.2403C103.231 11.6434 102.959 10.6487 102.144 10.6487C101.782 10.6487 101.601 10.9471 101.601 11.0466L102.416 8.95771C95.2627 5.37675 88.0188 7.46565 82.2237 10.5492L83.4008 7.46565C83.3103 7.46565 77.334 7.46565 77.334 7.46565L76.7002 8.46035H81.952L81.0465 10.9471L80.6844 11.1461C80.6844 11.1461 76.1569 13.6328 75.7947 17.3133C75.6136 19.4022 77.1529 19.3027 78.149 18.5069C78.7828 18.0096 79.6883 16.9154 80.3222 15.3239C81.1371 13.3344 81.952 11.2455 81.952 11.2455C81.952 11.2455 82.1331 11.1461 82.4953 11.1461C82.9481 11.1461 82.4953 12.1408 82.4048 12.2403C82.0426 13.1355 82.0426 13.235 81.6804 14.0307C81.3182 14.8265 82.1331 15.2244 83.1292 14.6276C83.1292 14.6276 81.5898 16.1196 81.3182 17.7112C81.2276 18.6064 81.4993 18.9048 81.5898 19.0043C82.1331 19.5016 83.3103 18.9048 83.9441 17.1143C84.3063 16.2191 85.9362 11.8424 85.9362 11.8424C85.9362 11.8424 86.2984 10.9471 86.4795 10.6487C86.8417 10.1514 87.2039 10.2508 87.2944 10.2508C87.8377 10.5492 87.4755 12.2403 87.4755 12.2403C86.7511 12.6381 85.7551 13.235 85.4834 13.9313C85.4834 14.1302 85.3024 15.1249 86.3889 14.926C88.1094 14.8265 88.5621 12.3397 88.5621 12.3397ZM78.8734 16.8159C77.7868 19.3027 76.9718 19.2032 76.5191 19.0043C76.2475 18.9048 75.7947 18.109 76.7002 16.418C77.1529 15.5228 77.6057 14.727 78.4206 13.8318C79.5978 12.6381 80.956 11.4445 80.956 11.4445C80.956 11.4445 79.6883 14.8265 78.8734 16.8159ZM90.7353 14.2297C90.7353 14.2297 90.5542 14.4286 90.2825 14.6276C90.0109 14.8265 89.7393 14.926 89.5582 14.727C89.4676 14.6276 89.2865 14.3291 89.5582 13.4339C89.5582 13.4339 89.8298 12.4392 90.192 11.9418C90.6447 11.1461 91.3691 10.8477 91.6408 11.4445C91.7313 11.4445 90.6447 14.1302 90.7353 14.2297ZM101.873 11.2455C101.963 11.1461 102.235 11.0466 102.326 11.1461C102.778 11.544 102.507 12.3397 102.507 12.3397C102.507 12.3397 101.963 12.3397 101.873 12.0413C101.692 11.7429 101.692 11.4445 101.873 11.2455ZM102.416 12.6381C102.416 12.6381 102.054 14.0307 101.239 14.727C100.786 15.1249 100.333 15.0254 100.515 14.4286C100.605 14.2297 101.33 12.1408 101.511 11.6434C101.33 12.5387 102.416 12.6381 102.416 12.6381ZM87.6566 10.1514C86.3889 9.85295 85.4834 11.1461 84.9402 12.5387C84.0347 15.0254 84.0347 14.926 82.767 18.308C82.4953 18.9048 82.2237 19.3027 81.952 19.1037C81.5898 18.9048 81.8615 18.2085 82.2237 17.2138C82.6764 16.2191 83.0386 15.5228 84.1252 13.8318L83.9441 13.7323C83.3103 14.6276 82.4048 15.0254 82.767 14.0307C83.0386 13.3344 83.2197 12.9365 83.4914 12.1408C83.8536 11.1461 83.1292 10.9471 82.0426 11.2455L82.1331 11.1461C88.6527 7.86353 95.4438 7.56512 101.601 9.25612C101.058 10.5492 100.062 13.4339 100.062 13.4339C99.9713 13.6328 99.8807 14.1302 99.8807 14.1302C99.2469 14.8265 98.613 15.1249 98.8847 14.3291L100.152 10.8477H99.3374L98.613 12.8371H97.617L98.3414 10.8477C98.1603 10.8477 97.5265 10.8477 97.5265 10.8477L96.3493 13.8318C95.8966 14.3291 94.9911 14.8265 94.5383 14.8265C94.1761 14.8265 93.7234 14.6276 93.9045 13.6328C93.995 13.1355 94.1761 12.4392 94.5383 11.6434C94.9005 10.7482 95.1722 10.4498 95.4438 10.0519C96.2588 8.95771 97.0737 9.55454 96.3493 10.4498C96.2588 10.6487 96.0777 10.7482 95.9871 10.8477L96.5304 11.4445C97.2548 10.6487 97.4359 9.15665 96.3493 9.05718C95.1722 8.95771 94.2667 10.1514 93.7234 11.1461C93.3612 11.8424 92.999 12.9365 92.999 13.7323C92.999 13.7323 92.7274 14.0307 92.3652 14.3291C91.7313 14.8265 91.4597 14.5281 91.7313 13.7323L92.8179 10.7482H92.003L91.8219 11.2455C91.7313 11.1461 91.7313 11.0466 91.6408 11.0466C91.188 10.5492 90.0109 10.7482 89.377 11.9418C89.377 11.9418 89.196 12.0413 88.9243 12.0413C88.7432 12.1408 88.6527 12.1408 88.6527 12.1408C88.6527 11.345 88.381 10.2508 87.6566 10.1514ZM86.1173 14.6276C86.1173 14.6276 85.9362 14.5281 86.0267 14.0307C86.2078 13.3344 87.6566 12.6381 87.6566 12.6381C87.5661 13.1355 87.2944 13.7323 87.1133 14.0307C86.8417 14.4286 86.3889 14.926 86.1173 14.6276Z" fill="#FFEEAB"/>
<path d="M109.117 10.1517C109.751 9.95269 110.023 9.15673 109.66 8.46027C109.66 9.05724 109.208 9.55471 108.936 9.65421C108.664 9.7537 108.393 9.8532 107.668 9.65421C108.03 9.95269 108.483 10.3507 109.117 10.1517Z" fill="#FFEEAB"/>
<path d="M115.817 21.3916C115.999 19.5016 114.731 19.3027 114.278 19.999L115.546 16.617H108.121C107.668 16.617 106.944 16.617 106.763 17.4127C106.581 18.109 106.853 18.9048 107.125 19.8C107.306 20.3969 107.034 21.5905 107.034 21.8889C106.763 23.182 106.31 23.5799 106.219 23.6794C106.038 23.8783 105.133 24.2762 105.314 22.7842C105.314 22.7842 105.404 22.1873 105.495 21.7894C105.676 21.1926 106.038 19.999 106.853 19.999L106.763 19.8C105.948 19.7006 105.314 20.2974 105.042 20.6953C104.318 21.7894 104.589 23.0826 104.589 23.0826C104.589 23.0826 102.688 24.5746 103.503 22.7842L104.77 19.6011H103.865L103.141 21.491C101.782 21.8889 102.145 20.5958 102.145 20.5958C102.326 19.5016 102.959 18.308 103.865 18.5069C104.137 18.5069 104.227 18.7058 104.499 18.9048L104.77 18.8053C104.589 18.5069 104.046 18.2085 103.503 18.0095C101.33 17.3132 100.062 17.4127 98.9753 17.7111C96.621 18.2085 94.8101 19.6011 93.1802 20.8942L93.6329 19.7006C92.4558 20.1979 92.003 20.0984 92.003 20.0984C92.1841 19.2032 92.1841 17.6117 91.1881 17.4127C90.4637 17.2138 89.9204 17.8106 89.7393 18.2085C89.4677 19.0043 89.4677 20.1979 90.9164 20.3969C90.5543 21.9884 90.1015 22.7842 89.8299 23.182C89.2866 23.9778 88.8338 24.1767 88.2905 24.0773C87.5661 23.8783 87.5661 23.182 87.5661 22.0879C87.5661 21.2921 88.2905 17.6117 90.1015 16.7164C90.9164 16.3185 91.3692 16.5175 91.7314 16.7164C91.9125 16.8159 92.003 17.0148 92.0936 17.1143L92.1841 16.9154C92.1841 16.9154 91.8219 16.1196 91.007 15.9207C90.7353 15.9207 90.1921 15.9207 89.9204 16.0201C88.7433 16.418 87.6567 17.4127 87.0228 19.5016C86.9323 19.8 86.5701 21.0931 86.9323 22.5852C87.1134 23.6794 87.7472 23.8783 88.0189 23.9778C88.2905 24.1767 89.4677 24.3757 90.5543 23.182C90.9164 22.7842 91.3692 22.1873 91.7314 21.1926C92.003 20.5958 92.0936 20.0984 92.0936 20.0984C92.0936 20.0984 92.6369 19.999 92.7274 19.999C92.7274 19.999 91.7314 22.6847 91.2786 23.6794H92.0936L92.9085 21.3916C92.9085 21.3916 93.814 20.9937 93.5424 21.69C93.2707 22.4857 93.3613 22.1873 93.0896 22.9831C92.818 23.8783 93.7235 23.8783 94.9006 23.0826L94.629 23.6794H95.3534L96.621 20.4963C96.621 20.4963 96.8021 20.2974 97.1643 20.1979C97.3454 20.0984 97.8887 19.8 97.7076 20.3969L96.4399 23.6794C96.7116 23.6794 97.2549 23.6794 97.2549 23.6794L98.432 20.5958C99.6997 19.8 99.3375 20.4963 99.3375 20.5958L98.5226 22.5852C98.1604 23.5799 98.5226 23.9778 99.6092 23.381C99.7903 23.2815 99.8808 23.182 99.8808 23.182C100.062 24.2762 101.873 22.8836 102.959 21.3916C102.959 21.3916 103.05 21.3916 103.141 21.3916L102.688 22.5852C102.416 23.8783 103.141 23.9778 104.77 22.8836C104.77 22.8836 104.952 23.5799 105.857 23.5799C106.4 23.6794 107.034 23.0826 107.306 22.6847C107.306 22.6847 107.577 22.6847 107.125 23.381C106.672 24.0773 106.219 24.4752 105.857 25.1715C105.133 26.763 105.676 27.6582 105.948 27.7577C106.491 27.8572 107.125 27.6582 108.121 25.5693C108.121 25.5693 109.932 21.0931 110.475 19.7006C110.837 18.7058 111.381 18.7058 111.562 18.8053C112.105 19.1037 111.743 20.7947 111.743 20.7947C109.117 21.7894 109.388 23.9778 110.747 23.4805C111.199 23.2815 112.286 22.4857 112.648 20.7947C112.648 20.7947 113.101 20.6953 113.282 20.5958C113.282 20.5958 113.192 20.9937 112.829 21.69C112.377 22.7842 112.648 23.4805 113.373 23.4805C115.365 23.5799 115.908 21.1926 115.908 21.1926C115.908 21.1926 116.451 21.1926 116.813 20.7947L116.723 20.6953C116.361 21.3916 115.908 21.3916 115.817 21.3916ZM90.9164 19.8995C90.9164 19.8995 90.8259 19.8995 90.4637 19.8C89.8299 19.6011 89.6488 18.7058 90.011 18.2085C90.2826 17.7111 90.7354 17.9101 90.8259 18.109C91.1881 18.6064 90.9164 19.8995 90.9164 19.8995ZM94.9006 22.8836C94.8101 23.0826 93.3613 24.1767 93.7235 23.0826C93.9046 22.5852 93.9951 22.3863 94.0857 21.9884C94.629 20.5958 92.9085 21.2921 92.9085 21.2921L92.9991 21.0931C93.9046 20.3969 95.8061 19.3027 96.3494 19.0043L94.9006 22.8836ZM100.967 23.2815C100.786 23.381 100.334 23.4805 100.696 22.3863H99.8808C99.7903 22.5852 99.6997 22.8836 99.6997 23.182C99.6997 23.182 99.4281 23.381 99.247 23.4805C99.1564 23.4805 98.7942 23.5799 99.0659 22.9831L99.9714 20.6953C100.334 19.7006 99.6997 19.8 99.0659 19.999C98.6131 20.1979 98.3415 20.3969 98.3415 20.3969C98.3415 20.3969 98.7037 19.7006 98.0698 19.7006C97.7076 19.7006 96.9832 19.8995 96.5305 20.2974L97.1643 18.8053C97.1643 18.8053 99.3375 17.7111 103.141 18.109C102.507 18.109 101.782 18.5069 101.42 19.6011C101.239 20.1979 101.239 21.1926 101.601 21.5905C101.873 21.8889 102.326 21.7894 102.326 21.7894C102.326 21.7894 101.692 22.7842 100.967 23.2815ZM110.928 22.8836C110.747 23.182 110.384 23.6794 110.022 23.5799C109.751 23.4805 109.751 23.182 109.751 23.0826C109.751 22.1873 111.471 21.3916 111.471 21.3916C111.29 22.2868 111.109 22.6847 110.928 22.8836ZM112.558 20.8942C112.648 19.8 112.105 18.9048 111.471 18.8053C110.113 18.8053 109.479 20.0984 108.936 21.3916C108.03 23.6794 106.672 27.2604 106.672 27.2604C106.4 27.9566 106.129 27.9566 105.948 27.8572C105.857 27.7577 105.766 27.5588 105.857 27.0614C105.948 26.5641 106.219 25.6688 107.306 23.9778C107.668 23.381 108.03 22.7842 107.487 22.6847C107.487 22.6847 107.94 21.8889 107.94 20.9937C107.94 20.0984 107.668 19.5016 107.577 19.1037C107.034 17.8106 106.853 17.3132 108.211 17.3132C109.57 17.3132 114.55 17.3132 114.55 17.3132C114.55 17.4127 113.282 20.4963 113.282 20.4963C113.01 20.6953 112.558 20.8942 112.558 20.8942ZM113.373 23.5799C112.92 23.4805 113.101 22.8836 113.192 22.6847C113.463 21.9884 113.825 21.1926 114.188 20.2974C114.006 21.0931 114.64 21.3916 115.093 21.491C115.093 21.491 114.278 23.6794 113.373 23.5799ZM115.093 21.2921C115.093 21.2921 114.369 21.0931 114.369 20.3969C114.369 19.999 114.731 19.8995 114.912 19.999C115.365 20.3969 115.093 21.2921 115.093 21.2921Z" fill="#FFEEAB"/>
<path d="M111.833 12.5393C112.467 12.5393 113.011 11.9423 113.011 11.2458C113.011 10.5494 112.467 9.95239 111.833 9.95239C111.199 9.95239 110.656 10.5494 110.656 11.2458C110.656 11.9423 111.199 12.5393 111.833 12.5393ZM111.833 10.1514C112.377 10.1514 112.83 10.6489 112.83 11.2458C112.83 11.8428 112.377 12.3403 111.833 12.3403C111.29 12.3403 110.837 11.8428 110.837 11.2458C110.747 10.6489 111.199 10.1514 111.833 10.1514Z" fill="#FFEEAB"/>
<path d="M111.562 11.3452H111.833L112.014 12.0417H112.286C112.286 12.0417 112.105 11.4447 112.105 11.3452C112.196 11.3452 112.377 11.2457 112.377 10.9472C112.377 10.6488 112.196 10.4498 111.924 10.4498H111.199V11.9422H111.471L111.562 11.3452ZM111.562 10.7483H111.924C111.924 10.7483 112.105 10.7483 112.105 10.9472C112.105 11.1462 111.924 11.1462 111.924 11.1462H111.562V10.7483Z" fill="#FFEC7E"/>
<path d="M55.1496 33.8255C55.4212 33.8255 55.7834 33.726 56.0551 33.6265C56.87 33.1292 57.0511 32.035 56.5984 31.1398C56.3267 30.6424 55.7834 30.2445 55.2401 30.2445C54.9685 30.2445 54.6063 30.344 54.3346 30.4435C53.5197 30.9408 53.3386 32.035 53.7914 32.9302C54.063 33.4276 54.6063 33.8255 55.1496 33.8255ZM114.55 37.7049C114.187 37.307 112.829 36.0138 109.479 36.6107C105.948 37.5059 102.869 40.7885 100.152 46.6572C99.6091 47.7514 99.3375 48.5472 98.9753 49.6414C97.3454 52.0287 94.6289 55.1123 93.3612 55.908C93.1801 56.0075 92.9085 56.107 92.7274 56.2065C92.5463 56.2065 92.2746 56.0075 92.2746 55.7091C92.2746 55.5102 92.1841 54.8139 92.0935 53.7197C91.8219 49.7408 91.188 47.3535 90.192 46.3588C89.7393 45.9609 89.1054 45.8615 88.1999 45.6625C88.0188 45.6625 87.7472 45.6625 87.7472 45.6625C90.0109 42.7779 93.9951 39.1969 96.0777 37.9038C96.1682 37.9038 96.3493 37.7049 96.4399 37.7049C96.2588 37.9038 96.1682 38.2022 96.1682 38.4011C96.1682 39.2964 96.621 40.0922 97.3454 40.3906C97.7981 40.5895 98.3414 40.5895 98.7942 40.3906C99.2469 40.1916 99.6091 39.7937 99.7902 39.1969C100.152 38.1027 99.6997 36.9091 98.7036 36.5112C98.6131 36.5112 98.5225 36.4117 98.3414 36.4117C98.2509 36.4117 98.0698 36.4117 97.8887 36.4117C94.9006 36.4117 90.1015 41.2858 87.7472 44.071C88.7432 41.1863 90.192 37.6054 90.4637 37.108C90.5542 36.8096 90.7353 36.6107 90.7353 36.5112C90.8259 36.4117 91.007 36.3123 91.007 36.3123H86.0268H85.9362C85.9362 36.3123 86.0268 36.4117 86.0268 36.6107C86.0268 36.8096 85.9362 37.2075 85.7551 37.8043C85.574 38.4011 84.1252 42.4795 81.4993 49.9398C78.8734 52.725 75.5231 55.8086 74.7987 56.3059C74.1649 56.8033 73.8932 56.9028 73.6216 57.0022C73.531 57.0022 73.3499 57.0022 73.2594 57.0022C73.1688 56.9028 72.9877 56.7038 73.0783 55.908C73.1688 55.6096 73.3499 55.0128 73.531 54.3165C75.6136 48.3482 78.7829 39.3959 79.1451 38.6001C79.2356 38.3017 79.3261 38.1027 79.4167 37.9038C79.5072 37.7049 79.5978 37.5059 79.5978 37.4064C79.6883 37.2075 79.8694 36.8096 79.96 36.6107C80.0505 36.4117 80.2316 36.3123 80.2316 36.3123H75.4325V36.4117C75.4325 36.8096 75.4325 37.2075 75.2514 37.7049C75.1609 38.2022 74.1649 40.9874 72.3539 45.8615H66.6493C67.102 44.6678 67.4642 43.5736 67.8264 42.6784C68.6414 40.2911 69.1847 38.8985 69.2752 38.6001C69.5469 37.8043 69.8185 37.108 69.9996 36.7101C70.1807 36.5112 70.3618 36.3123 70.3618 36.3123H65.5627C65.5627 36.3123 65.6533 36.4117 65.6533 36.7101C65.6533 37.0086 65.5627 37.307 65.4722 37.8043C65.2911 38.4011 63.9328 42.4795 61.1258 50.0393C57.0511 55.5102 51.0749 59.1906 48.1773 57.9969C47.0002 57.4996 46.5474 56.2065 46.638 54.3165C46.638 54.217 46.638 54.0181 46.7285 53.8192C46.8191 53.8192 46.9096 53.7197 47.0002 53.6202C54.6063 49.2435 57.8661 45.8615 59.2243 43.8721C60.492 42.181 61.1258 39.8932 60.5825 38.4011C59.9487 36.6107 57.7755 35.5165 55.5118 35.9144C51.0749 36.7101 47.2718 39.9927 44.827 45.1652C43.4688 48.0498 42.8349 51.6308 43.1971 54.8139C41.7483 55.7091 38.398 57.6985 36.7682 57.798C36.406 57.798 36.0438 57.798 35.8627 57.4996C35.5005 56.8033 35.9532 53.7197 40.8429 42.9768C40.9334 42.7779 41.024 42.4795 41.1145 42.2805C41.3862 41.7832 41.5672 41.2858 41.8389 40.689C42.02 40.1916 42.2916 39.6943 42.4727 39.1969C42.7444 38.6001 43.016 38.0033 43.2877 37.5059C43.5593 36.9091 43.7404 36.5112 43.831 36.4117C43.9215 36.2128 44.1026 36.1133 44.1026 36.1133H38.9413C38.9413 36.1133 39.0319 36.2128 39.0319 36.5112C39.0319 36.8096 38.9413 37.0086 38.8508 37.4064C38.398 38.799 37.6736 40.689 37.4925 40.9874C37.3114 41.2858 37.0398 41.8826 36.6776 42.6784C36.0438 44.071 35.3194 45.8615 34.595 47.1546C32.4218 51.3324 29.6148 54.8139 26.7172 56.8033C25.9023 57.4001 24.9968 57.6985 24.1819 57.4996C23.548 57.3006 23.0953 56.8033 23.0953 56.107C23.0953 56.107 23.0953 56.107 23.0953 56.0075C23.0953 55.908 23.0953 55.7091 23.0953 55.6096C23.548 56.107 24.1819 56.4054 24.8157 56.2065C25.2684 56.107 25.7212 55.8086 25.9928 55.3112C26.2645 54.8139 26.355 54.3165 26.2645 53.7197C26.0834 52.9239 25.5401 52.2276 24.8157 52.0287C24.4535 51.9292 23.2764 51.7303 22.0992 53.4213C21.5559 54.1176 21.3748 55.3112 21.4654 56.4054V56.5049C21.4654 56.6043 21.5559 56.9028 21.5559 57.1017C21.3748 57.2012 20.4693 57.599 19.8355 57.798C19.2922 57.8975 18.93 57.4996 18.8395 57.3006C18.6584 56.6043 18.5678 55.4107 19.1111 53.3218C20.0166 50.0393 26.2645 33.2287 26.9889 31.3387C27.0794 31.2392 27.0794 31.0403 27.2605 30.7419C27.3511 30.4435 27.4416 30.2445 27.6227 29.9461L28.0755 30.2445C30.0675 27.8572 32.3313 23.8784 33.3273 19.8001C33.5989 18.308 34.9572 10.6487 29.977 9.35562C27.17 8.46038 23.1858 10.2509 18.1151 14.6276C16.0324 16.5175 11.7766 20.3969 7.70195 27.0615C3.26505 34.3228 -0.0852614 44.2699 0.00528751 50.2382C-0.0852614 55.1123 1.00133 57.4996 2.17846 58.8922C2.72176 59.489 3.44615 59.5885 3.80834 59.5885C4.89493 59.5885 5.98152 58.8922 6.61536 58.4943C9.60347 56.8033 12.6821 53.1229 15.6703 49.2435L15.7608 49.144C16.123 48.7461 16.3946 48.2488 16.7568 47.8509C16.123 49.9398 15.5797 52.3271 15.3986 54.0181C15.2175 55.908 15.3986 57.3006 16.0324 58.0964C16.6663 58.8922 17.6623 59.489 18.4773 59.489C18.8395 59.489 19.5639 59.3895 20.1977 59.1906C21.3748 58.7927 22.3709 58.1959 22.4614 58.0964C23.0047 58.6932 23.7291 59.0911 24.7251 59.0911H24.8157C27.7133 59.0911 30.8825 55.1123 33.78 50.6361C32.784 53.9186 32.784 56.3059 33.5989 57.6985C34.1422 58.4943 34.9572 58.9916 36.0438 59.0911C38.5791 59.2901 43.1971 56.107 43.5593 55.8086C43.9215 57.2012 44.5554 58.0964 45.0987 58.4943C45.7325 58.9916 46.7285 59.3895 48.2679 59.489C49.0828 59.489 49.8977 59.3895 50.8938 59.1906C54.063 58.3948 57.2322 56.107 60.3109 52.3271L59.2243 55.3112C58.8621 56.4054 58.4999 57.3006 58.3188 57.8975C58.1377 58.2953 58.1377 58.3948 57.9566 58.6932C57.7755 58.8922 57.5944 59.0911 57.5944 59.0911H62.484C62.484 59.0911 62.3935 58.9916 62.3029 58.7927C62.3029 58.5938 62.3029 58.3948 62.3935 57.9969C63.0273 56.107 64.295 52.4266 66.3776 46.6572H72.0822C71.5389 48.2488 70.9051 49.9398 70.3618 51.4319V51.5313C70.1807 52.0287 69.4563 54.3165 69.3658 54.9133C69.1847 56.0075 69.0941 57.4996 69.728 58.3948C70.0902 58.8922 70.5429 59.0911 71.2673 59.0911C72.6255 59.0911 74.0743 57.9969 75.0703 57.3006L75.342 57.1017C75.9758 56.6043 78.5112 54.416 80.8655 51.8297C80.4127 53.1229 79.96 54.217 79.5978 55.3112L79.5072 55.6096C79.0545 56.9028 78.6923 57.8975 78.4207 58.4943C78.3301 58.8922 77.9679 59.1906 77.9679 59.1906C79.5072 59.1906 82.6765 59.1906 82.767 59.1906C82.767 59.1906 82.5859 58.8922 82.6765 58.5938C82.6765 58.5938 85.8457 49.4424 86.7512 46.8562C88.2905 47.453 88.381 49.7408 88.4716 52.2276C88.4716 53.1229 88.5621 54.217 88.6527 55.1123C89.0149 57.798 89.6487 58.9916 91.0975 59.1906C91.7313 59.2901 92.2746 58.9916 92.6368 58.6932C94.1762 57.4996 98.432 52.526 98.7036 52.0287C98.432 54.416 98.8847 57.0022 99.8808 58.2953C100.515 59.0911 101.148 59.489 102.054 59.489C104.499 59.489 107.577 56.9028 109.751 53.6202C109.479 54.6149 109.298 55.6096 109.298 55.908C109.207 56.9028 109.479 57.798 109.932 58.3948C110.294 58.9916 110.928 59.3895 111.652 59.3895C112.195 59.3895 113.01 59.2901 113.916 58.7927C115.184 58.0964 116.361 56.4054 116.904 55.5102L116.994 55.3112H116.813C116.813 55.3112 116.542 55.3112 116.361 55.3112H116.27C116.18 55.4107 116.089 55.5102 115.998 55.6096C115.546 56.2065 114.821 57.0022 114.278 57.3006C113.644 57.599 113.191 57.4996 113.01 57.2012C112.558 56.2065 113.101 54.5154 113.825 52.2276C114.006 51.5313 118.896 37.108 118.896 37.108C119.077 36.6107 119.168 36.3123 119.258 36.1133C119.349 35.9144 119.53 35.8149 119.53 35.8149H115.365C115.093 36.1133 114.731 37.4064 114.55 37.7049ZM54.5157 37.8043C55.1496 37.307 55.874 37.108 56.5078 37.108C56.6889 37.108 56.87 37.108 56.9606 37.2075C57.2322 37.307 57.5039 37.5059 57.5944 37.7049C58.4093 39.6943 56.6889 44.1705 52.5237 47.8509C49.8072 50.2382 47.9962 51.6308 46.638 52.4266C47.634 48.5472 50.7127 40.5895 54.5157 37.8043ZM4.62328 57.8975C3.5367 58.0964 2.8123 57.3006 2.63121 55.8086C2.45011 53.5207 2.72176 51.7303 2.72176 51.034C2.9934 48.7461 3.62724 46.0604 4.62328 43.1758C6.52481 37.6054 7.88304 34.4223 10.1468 30.2445C14.2215 22.7842 18.7489 15.3239 24.7251 11.6435C26.355 10.6487 29.2526 9.15668 30.973 10.8477C33.2367 12.9366 32.9651 17.1144 31.9691 20.4964C31.2447 22.9831 29.5242 26.6636 28.7093 27.2604L28.6187 27.1609C28.2566 27.1609 24.0008 27.1609 24.0008 27.1609C24.0008 27.1609 24.0913 27.3599 24.0913 27.6583C24.0913 28.0562 24.0008 28.4541 23.8197 28.653C23.8197 28.653 19.0206 40.9874 18.3867 42.6784C17.7529 44.8668 8.96963 57.2012 4.62328 57.8975ZM113.916 39.5948C113.825 39.8932 113.735 40.1916 113.554 40.5895C113.191 41.5842 112.739 42.8773 112.286 44.2699C111.743 45.9609 111.109 47.7514 110.747 48.7461C110.566 49.343 110.384 49.6414 110.384 49.7408C108.302 54.7144 105.223 57.0022 103.05 57.0022C102.507 57.0022 101.148 56.5049 101.33 54.1176C101.511 52.1281 102.326 49.4424 103.955 46.1599C106.672 41.0869 108.664 39.0974 109.932 38.3017C110.475 37.9038 111.109 37.8043 111.562 37.8043C112.195 37.8043 112.648 38.0033 112.92 38.1027C113.554 38.3017 113.916 38.6996 114.006 38.8985C114.097 38.998 114.097 39.1969 113.916 39.5948ZM60.5825 33.8255C61.488 33.8255 62.2124 33.0297 62.2124 32.035C62.2124 31.0403 61.488 30.2445 60.5825 30.2445C59.677 30.2445 58.9526 31.0403 58.9526 32.035C58.9526 33.0297 59.677 33.8255 60.5825 33.8255ZM123.967 35.8149C122.156 35.8149 120.707 37.4064 120.707 39.3959C120.707 41.3853 122.156 42.9768 123.967 42.9768C125.778 42.9768 127.227 41.3853 127.227 39.3959C127.227 37.4064 125.778 35.8149 123.967 35.8149ZM123.967 42.181C122.518 42.181 121.431 40.8879 121.431 39.3959C121.431 37.8043 122.609 36.6107 123.967 36.6107C125.325 36.6107 126.502 37.9038 126.502 39.3959C126.502 40.9874 125.416 42.181 123.967 42.181ZM125.325 38.6001C125.325 37.8043 124.872 37.4064 124.329 37.4064H122.699V40.9874H123.333V39.4953H123.967L124.42 40.9874H125.144C125.144 40.9874 124.601 39.4953 124.691 39.4953C124.963 39.4953 125.325 39.2964 125.325 38.6001ZM124.148 38.8985H123.423V38.0033H124.238C124.238 38.0033 124.691 38.0033 124.691 38.5006C124.691 38.8985 124.148 38.8985 124.148 38.8985Z" fill="#5E2A2B"/>
</svg>
