<svg width="12" height="12" viewBox="0 0 12 12" fill="none" xmlns="http://www.w3.org/2000/svg">
<path d="M1.53489 1.44381C1.97514 1.00356 2.68892 1.00356 3.12917 1.44381L11.1006 9.41523C11.5408 9.85548 11.5408 10.5693 11.1006 11.0095C10.6603 11.4498 9.94656 11.4498 9.50631 11.0095L1.53489 3.03809C1.09464 2.59785 1.09464 1.88406 1.53489 1.44381Z" fill="white"/>
<path d="M11.1006 1.44376C11.5408 1.88401 11.5408 2.5978 11.1006 3.03805L3.12914 11.0095C2.68889 11.4497 1.9751 11.4497 1.53485 11.0095C1.09461 10.5692 1.09461 9.85544 1.53485 9.41519L9.50628 1.44376C9.94653 1.00351 10.6603 1.00351 11.1006 1.44376Z" fill="white"/>
</svg>
