<svg width="29" height="33" viewBox="0 0 29 33" fill="none" xmlns="http://www.w3.org/2000/svg">
<path d="M2.37608 32.3322H26.1377C26.7677 32.3315 27.3741 32.0504 27.8237 31.5504C28.2733 31.0505 28.5294 30.3727 28.5358 29.6657L28.7545 2.99989C28.7597 2.29288 28.5147 1.61504 28.0733 1.11511C27.632 0.615177 27.0302 0.334011 26.4002 0.333313H2.63857C2.00856 0.334011 1.40223 0.615177 0.952643 1.11511C0.503059 1.61504 0.246953 2.29288 0.240531 2.99989L0.0217855 29.6657C0.0166078 30.3727 0.261592 31.0505 0.702974 31.5504C1.14436 32.0504 1.74607 32.3315 2.37608 32.3322ZM9.36245 22.9341C9.25312 22.8103 9.16679 22.6634 9.10839 22.5016C9.05 22.3399 9.02068 22.1665 9.02211 21.9914C9.02355 21.8163 9.05571 21.643 9.11676 21.4812C9.17781 21.3195 9.26656 21.1725 9.37792 21.0488L12.4184 17.6661H3.40492C3.08982 17.6661 2.78878 17.5256 2.56802 17.2755C2.34727 17.0255 2.22487 16.6864 2.22778 16.3328C2.23068 15.9792 2.35863 15.64 2.58349 15.39C2.80835 15.14 3.1117 14.9995 3.42679 14.9995H12.4395L9.45527 11.6194C9.23493 11.3693 9.11288 11.0303 9.11595 10.677C9.11902 10.3237 9.24694 9.98488 9.47162 9.73504C9.6963 9.4852 9.99936 9.34476 10.3142 9.34457C10.6291 9.34438 10.9299 9.48446 11.1508 9.73404L16.143 15.3885C16.3637 15.6391 16.486 15.9787 16.4831 16.3328C16.4802 16.6868 16.3523 17.0264 16.1275 17.2771L11.0425 22.9341C10.9312 23.0579 10.7994 23.1562 10.6547 23.2232C10.51 23.2902 10.3553 23.3247 10.1993 23.3247C10.0432 23.3247 9.88904 23.2902 9.74546 23.2232C9.60188 23.1562 9.47173 23.0579 9.36245 22.9341Z" fill="#5E2A2B"/>
</svg>
