<svg width="10" height="10" viewBox="0 0 10 10" fill="none" xmlns="http://www.w3.org/2000/svg">
<path d="M0.00634766 4.51553C0.00634766 4.10046 0.342829 3.76398 0.7579 3.76398H8.27343C8.6885 3.76398 9.02498 4.10046 9.02498 4.51553C9.02498 4.9306 8.6885 5.26708 8.27343 5.26708H0.757899C0.342828 5.26708 0.00634766 4.9306 0.00634766 4.51553Z" fill="white"/>
<path d="M4.51554 0.00622555C4.93061 0.00622557 5.26709 0.342707 5.26709 0.757778L5.26709 8.27331C5.26709 8.68838 4.93061 9.02486 4.51554 9.02486C4.10047 9.02486 3.76398 8.68838 3.76398 8.27331L3.76398 0.757777C3.76398 0.342706 4.10047 0.00622553 4.51554 0.00622555Z" fill="white"/>
</svg>
