<svg width="25" height="32" viewBox="0 0 25 32" fill="none" xmlns="http://www.w3.org/2000/svg">
<path fill-rule="evenodd" clip-rule="evenodd" d="M4.9895 7.39561C4.9895 11.4334 8.34026 14.7066 12.4736 14.7066C16.607 14.7066 19.9578 11.4334 19.9578 7.39561C19.9578 3.35785 16.607 0.0845947 12.4736 0.0845947C8.34026 0.0845947 4.9895 3.35785 4.9895 7.39561ZM8.74817 31.8933C9.92463 31.8314 11.176 31.7656 12.4736 31.7656C13.7712 31.7656 15.0225 31.8314 16.199 31.8933C21.2682 32.16 24.9471 32.3536 24.9471 26.8916C24.9471 20.1619 19.3625 17.1435 12.4736 17.1435C5.58461 17.1435 0 20.1619 0 26.8916C0 32.3536 3.6789 32.16 8.74817 31.8933Z" fill="#5E2A2B"/>
</svg>
