<svg width="37" height="38" viewBox="0 0 37 38" fill="none" xmlns="http://www.w3.org/2000/svg">
<path d="M0.0191 19.11C0.00855461 9.07102 8.14377 0.927246 18.1827 0.927246H18.8173C28.8413 0.927246 36.9704 9.04776 36.9809 19.0718C36.9914 29.1107 28.8562 37.2545 18.8173 37.2545H18.1827C8.15868 37.2545 0.0296297 29.134 0.0191 19.11Z" fill="#DA2228"/>
<path d="M23.4525 11.7034C27.7615 14.0404 29.3602 19.428 27.0232 23.737C24.6863 28.046 19.2987 29.6447 14.9896 27.3078C10.6806 24.9708 9.08194 19.5832 11.4189 15.2742C12.8562 12.6241 15.4473 10.9991 18.2318 10.6844M18.2318 10.6844L12.9343 9.11408M18.2318 10.6844L15.8074 16.0927" stroke="white" stroke-width="2" stroke-linecap="round" stroke-linejoin="round"/>
</svg>
