<svg width="657" height="104" viewBox="0 0 657 104" fill="none" xmlns="http://www.w3.org/2000/svg">
<path d="M132.268 19.22C132.268 16.46 133.24 15.08 135.184 15.08C137.128 15.08 138.1 16.46 138.1 19.22V25.268H148.828V19.22C148.828 16.46 149.8 15.08 151.744 15.08C153.688 15.08 154.66 16.46 154.66 19.22V37.184C154.66 39.944 153.688 41.324 151.744 41.324C149.8 41.324 148.828 39.944 148.828 37.184V30.668H138.1V37.184C138.1 39.944 137.128 41.324 135.184 41.324C133.24 41.324 132.268 39.944 132.268 37.184V19.22ZM172.23 30.812L169.278 21.308L166.11 30.812H172.23ZM173.922 36.176H164.454L163.59 38.768C163.014 40.496 162.078 41.36 160.782 41.36C159.966 41.36 159.294 41.108 158.766 40.604C158.262 40.076 158.01 39.404 158.01 38.588C158.01 38.3 158.022 38.012 158.046 37.724C158.094 37.436 158.178 37.16 158.298 36.896L164.958 18.824C165.438 17.528 166.026 16.58 166.722 15.98C167.442 15.356 168.342 15.044 169.422 15.044C171.462 15.044 172.89 16.172 173.706 18.428L180.186 36.824C180.45 37.568 180.582 38.18 180.582 38.66C180.582 39.5 180.306 40.16 179.754 40.64C179.202 41.12 178.518 41.36 177.702 41.36C176.238 41.36 175.218 40.424 174.642 38.552L173.922 36.176ZM193.542 29.48C192.39 30.992 191.286 32.528 190.23 34.088C189.198 35.624 188.226 37.22 187.314 38.876C186.978 39.476 186.594 40.04 186.162 40.568C185.754 41.072 185.166 41.324 184.398 41.324C184.014 41.324 183.642 41.24 183.282 41.072C182.946 40.928 182.634 40.724 182.346 40.46C182.082 40.196 181.866 39.896 181.698 39.56C181.53 39.2 181.446 38.828 181.446 38.444C181.446 38.012 181.518 37.604 181.662 37.22C181.83 36.812 182.022 36.416 182.238 36.032C183.126 34.448 184.098 32.936 185.154 31.496C186.21 30.056 187.314 28.64 188.466 27.248L183.57 20.444C183.282 20.036 183.03 19.604 182.814 19.148C182.598 18.692 182.49 18.224 182.49 17.744C182.49 17.024 182.754 16.4 183.282 15.872C183.81 15.344 184.434 15.08 185.154 15.08C185.514 15.08 185.838 15.164 186.126 15.332C186.438 15.476 186.714 15.668 186.954 15.908C187.194 16.148 187.41 16.412 187.602 16.7C187.818 16.988 188.022 17.264 188.214 17.528L193.542 25.628V19.22C193.542 17.828 193.758 16.796 194.19 16.124C194.646 15.428 195.378 15.08 196.386 15.08C197.394 15.08 198.114 15.428 198.546 16.124C199.002 16.796 199.23 17.828 199.23 19.22V25.628L204.558 17.528C204.726 17.264 204.918 16.988 205.134 16.7C205.35 16.412 205.578 16.148 205.818 15.908C206.058 15.668 206.322 15.476 206.61 15.332C206.922 15.164 207.258 15.08 207.618 15.08C208.338 15.08 208.962 15.344 209.49 15.872C210.018 16.4 210.282 17.024 210.282 17.744C210.282 18.224 210.174 18.692 209.958 19.148C209.742 19.604 209.49 20.036 209.202 20.444L204.306 27.248C205.458 28.64 206.562 30.056 207.618 31.496C208.674 32.936 209.646 34.448 210.534 36.032C210.75 36.416 210.93 36.812 211.074 37.22C211.242 37.604 211.326 38.012 211.326 38.444C211.326 38.828 211.242 39.2 211.074 39.56C210.906 39.896 210.678 40.196 210.39 40.46C210.126 40.724 209.814 40.928 209.454 41.072C209.118 41.24 208.758 41.324 208.374 41.324C207.606 41.324 207.006 41.072 206.574 40.568C206.166 40.04 205.794 39.476 205.458 38.876C204.546 37.22 203.562 35.624 202.506 34.088C201.474 32.528 200.382 30.992 199.23 29.48V37.184C199.23 38.576 199.002 39.62 198.546 40.316C198.114 40.988 197.394 41.324 196.386 41.324C195.378 41.324 194.646 40.988 194.19 40.316C193.758 39.62 193.542 38.576 193.542 37.184V29.48ZM220.731 22.64L218.715 37.58C218.523 38.876 218.187 39.836 217.707 40.46C217.251 41.06 216.567 41.36 215.655 41.36C214.815 41.36 214.131 41.096 213.603 40.568C213.075 40.016 212.811 39.26 212.811 38.3C212.811 37.844 212.883 37.256 213.027 36.536L216.159 19.076C216.399 17.732 216.807 16.736 217.383 16.088C217.959 15.416 218.871 15.08 220.119 15.08C222.255 15.08 223.611 16.232 224.187 18.536L228.075 33.836L231.711 18.5C232.263 16.22 233.595 15.08 235.707 15.08C237.003 15.08 237.951 15.428 238.551 16.124C239.151 16.796 239.571 17.852 239.811 19.292L242.655 36.896C242.751 37.448 242.799 37.916 242.799 38.3C242.799 39.26 242.523 40.016 241.971 40.568C241.419 41.096 240.711 41.36 239.847 41.36C238.215 41.36 237.255 40.22 236.967 37.94L235.131 22.64C233.907 27.872 232.911 31.952 232.143 34.88C231.399 37.808 230.811 39.62 230.379 40.316C230.115 40.724 229.791 41 229.407 41.144C229.023 41.288 228.531 41.36 227.931 41.36C226.971 41.36 226.227 41.144 225.699 40.712C225.171 40.28 224.775 39.512 224.511 38.408L220.731 22.64ZM246.697 19.22C246.697 16.46 247.669 15.08 249.613 15.08C251.557 15.08 252.529 16.46 252.529 19.22V31.208L263.293 16.988C263.773 16.364 264.241 15.896 264.697 15.584C265.177 15.248 265.741 15.08 266.389 15.08C267.325 15.08 268.009 15.416 268.441 16.088C268.873 16.736 269.089 17.708 269.089 19.004V37.184C269.089 39.944 268.117 41.324 266.173 41.324C264.229 41.324 263.257 39.944 263.257 37.184V25.412L252.709 39.344C252.157 40.088 251.617 40.628 251.089 40.964C250.561 41.3 249.985 41.468 249.361 41.468C248.425 41.468 247.741 41.168 247.309 40.568C246.901 39.968 246.697 39.056 246.697 37.832V19.22ZM278.019 20.84H275.859C273.099 20.84 271.719 19.94 271.719 18.14C271.719 16.316 273.099 15.404 275.859 15.404H286.011C288.771 15.404 290.151 16.316 290.151 18.14C290.151 19.94 288.771 20.84 286.011 20.84H283.851V37.184C283.851 39.944 282.879 41.324 280.935 41.324C278.991 41.324 278.019 39.944 278.019 37.184V20.84ZM296.728 41C295.96 41 295.312 40.94 294.784 40.82C294.28 40.7 293.872 40.496 293.56 40.208C293.272 39.92 293.068 39.548 292.948 39.092C292.828 38.612 292.768 38.024 292.768 37.328V19.508C292.768 18.788 292.828 18.176 292.948 17.672C293.068 17.144 293.272 16.712 293.56 16.376C293.872 16.04 294.28 15.8 294.784 15.656C295.312 15.488 295.984 15.404 296.8 15.404H303.352C306.112 15.404 307.492 16.316 307.492 18.14C307.492 19.94 306.112 20.84 303.352 20.84H298.6V25.412H302.704C305.464 25.412 306.844 26.312 306.844 28.112C306.844 29.912 305.464 30.812 302.704 30.812H298.6V35.6H303.532C306.292 35.6 307.672 36.5 307.672 38.3C307.672 40.1 306.292 41 303.532 41H296.728ZM324.775 19.22C324.775 16.46 325.747 15.08 327.691 15.08C329.635 15.08 330.607 16.46 330.607 19.22V31.208L341.371 16.988C341.851 16.364 342.319 15.896 342.775 15.584C343.255 15.248 343.819 15.08 344.467 15.08C345.403 15.08 346.087 15.416 346.519 16.088C346.951 16.736 347.167 17.708 347.167 19.004V37.184C347.167 39.944 346.195 41.324 344.251 41.324C342.307 41.324 341.335 39.944 341.335 37.184V25.412L330.787 39.344C330.235 40.088 329.695 40.628 329.167 40.964C328.639 41.3 328.063 41.468 327.439 41.468C326.503 41.468 325.819 41.168 325.387 40.568C324.979 39.968 324.775 39.056 324.775 37.832V19.22ZM365.061 20.84H361.641L357.897 37.328C357.777 37.904 357.585 38.456 357.321 38.984C357.057 39.488 356.721 39.944 356.313 40.352C355.929 40.76 355.473 41.084 354.945 41.324C354.441 41.564 353.865 41.684 353.217 41.684C352.209 41.684 351.381 41.444 350.733 40.964C350.085 40.46 349.761 39.716 349.761 38.732C349.761 38.156 349.905 37.724 350.193 37.436C350.457 37.148 350.769 36.872 351.129 36.608C351.513 36.32 351.885 35.984 352.245 35.6C352.605 35.192 352.881 34.604 353.073 33.836L356.601 18.824C356.769 18.152 356.973 17.6 357.213 17.168C357.477 16.712 357.789 16.352 358.149 16.088C358.533 15.824 358.977 15.644 359.481 15.548C359.985 15.452 360.585 15.404 361.281 15.404H366.753C369.513 15.404 370.893 16.316 370.893 18.14V37.184C370.893 39.944 369.921 41.324 367.977 41.324C366.033 41.324 365.061 39.944 365.061 37.184V20.84ZM376.506 19.22C376.506 16.46 377.478 15.08 379.422 15.08C381.366 15.08 382.338 16.46 382.338 19.22V31.208L393.102 16.988C393.582 16.364 394.05 15.896 394.506 15.584C394.986 15.248 395.55 15.08 396.198 15.08C397.134 15.08 397.818 15.416 398.25 16.088C398.682 16.736 398.898 17.708 398.898 19.004V37.184C398.898 39.944 397.926 41.324 395.982 41.324C394.038 41.324 393.066 39.944 393.066 37.184V25.412L382.518 39.344C381.966 40.088 381.426 40.628 380.898 40.964C380.37 41.3 379.794 41.468 379.17 41.468C378.234 41.468 377.55 41.168 377.118 40.568C376.71 39.968 376.506 39.056 376.506 37.832V19.22ZM417.267 19.544C417.267 16.784 418.239 15.404 420.183 15.404H436.743C438.687 15.404 439.659 16.784 439.659 19.544V37.184C439.659 39.944 438.687 41.324 436.743 41.324C434.799 41.324 433.827 39.944 433.827 37.184V20.804H423.099V37.184C423.099 39.944 422.127 41.324 420.183 41.324C418.239 41.324 417.267 39.944 417.267 37.184V19.544ZM449.237 41C448.469 41 447.821 40.94 447.293 40.82C446.789 40.7 446.381 40.496 446.069 40.208C445.781 39.92 445.577 39.548 445.457 39.092C445.337 38.612 445.277 38.024 445.277 37.328V19.508C445.277 18.788 445.337 18.176 445.457 17.672C445.577 17.144 445.781 16.712 446.069 16.376C446.381 16.04 446.789 15.8 447.293 15.656C447.821 15.488 448.493 15.404 449.309 15.404H455.861C458.621 15.404 460.001 16.316 460.001 18.14C460.001 19.94 458.621 20.84 455.861 20.84H451.109V25.412H455.213C457.973 25.412 459.353 26.312 459.353 28.112C459.353 29.912 457.973 30.812 455.213 30.812H451.109V35.6H456.041C458.801 35.6 460.181 36.5 460.181 38.3C460.181 40.1 458.801 41 456.041 41H449.237ZM472.885 27.5C475.549 27.5 476.881 26.372 476.881 24.116C476.881 22.964 476.557 22.124 475.909 21.596C475.261 21.044 474.253 20.768 472.885 20.768H470.365V27.5H472.885ZM464.533 19.508C464.533 18.788 464.593 18.176 464.713 17.672C464.833 17.144 465.037 16.712 465.325 16.376C465.637 16.04 466.045 15.8 466.549 15.656C467.077 15.488 467.749 15.404 468.565 15.404H473.821C475.285 15.404 476.593 15.608 477.745 16.016C478.921 16.424 479.905 17.012 480.697 17.78C481.513 18.524 482.125 19.436 482.533 20.516C482.965 21.596 483.181 22.796 483.181 24.116C483.181 26.804 482.401 28.928 480.841 30.488C479.305 32.024 477.121 32.792 474.289 32.792H470.365V37.184C470.365 39.944 469.393 41.324 467.449 41.324C465.505 41.324 464.533 39.944 464.533 37.184V19.508ZM491.405 41C490.637 41 489.989 40.94 489.461 40.82C488.957 40.7 488.549 40.496 488.237 40.208C487.949 39.92 487.745 39.548 487.625 39.092C487.505 38.612 487.445 38.024 487.445 37.328V19.508C487.445 18.788 487.505 18.176 487.625 17.672C487.745 17.144 487.949 16.712 488.237 16.376C488.549 16.04 488.957 15.8 489.461 15.656C489.989 15.488 490.661 15.404 491.477 15.404H498.029C500.789 15.404 502.169 16.316 502.169 18.14C502.169 19.94 500.789 20.84 498.029 20.84H493.277V25.412H497.381C500.141 25.412 501.521 26.312 501.521 28.112C501.521 29.912 500.141 30.812 497.381 30.812H493.277V35.6H498.209C500.969 35.6 502.349 36.5 502.349 38.3C502.349 40.1 500.969 41 498.209 41H491.405ZM510.012 20.84H507.852C505.092 20.84 503.712 19.94 503.712 18.14C503.712 16.316 505.092 15.404 507.852 15.404H518.004C520.764 15.404 522.144 16.316 522.144 18.14C522.144 19.94 520.764 20.84 518.004 20.84H515.844V37.184C515.844 39.944 514.872 41.324 512.928 41.324C510.984 41.324 510.012 39.944 510.012 37.184V20.84ZM534.568 30.812L531.616 21.308L528.448 30.812H534.568ZM536.26 36.176H526.792L525.928 38.768C525.352 40.496 524.416 41.36 523.12 41.36C522.304 41.36 521.632 41.108 521.104 40.604C520.6 40.076 520.348 39.404 520.348 38.588C520.348 38.3 520.36 38.012 520.384 37.724C520.432 37.436 520.516 37.16 520.636 36.896L527.296 18.824C527.776 17.528 528.364 16.58 529.06 15.98C529.78 15.356 530.68 15.044 531.76 15.044C533.8 15.044 535.228 16.172 536.044 18.428L542.524 36.824C542.788 37.568 542.92 38.18 542.92 38.66C542.92 39.5 542.644 40.16 542.092 40.64C541.54 41.12 540.856 41.36 540.04 41.36C538.576 41.36 537.556 40.424 536.98 38.552L536.26 36.176ZM573.88 41H549.112C547.168 41 546.196 39.62 546.196 36.86V19.22C546.196 16.46 547.168 15.08 549.112 15.08C551.056 15.08 552.028 16.46 552.028 19.22V35.6H558.544V19.22C558.544 16.46 559.516 15.08 561.46 15.08C563.404 15.08 564.376 16.46 564.376 19.22V35.6H570.892V19.22C570.892 16.46 571.864 15.08 573.808 15.08C575.752 15.08 576.724 16.46 576.724 19.22V35.6H576.796C578.74 35.6 579.712 36.98 579.712 39.74V41.972C579.712 44.732 578.74 46.112 576.796 46.112C574.852 46.112 573.88 44.732 573.88 41.972V41ZM582.327 19.22C582.327 16.46 583.299 15.08 585.243 15.08C587.187 15.08 588.159 16.46 588.159 19.22V31.208L598.923 16.988C599.403 16.364 599.871 15.896 600.327 15.584C600.807 15.248 601.371 15.08 602.019 15.08C602.955 15.08 603.639 15.416 604.071 16.088C604.503 16.736 604.719 17.708 604.719 19.004V37.184C604.719 39.944 603.747 41.324 601.803 41.324C599.859 41.324 598.887 39.944 598.887 37.184V25.412L588.339 39.344C587.787 40.088 587.247 40.628 586.719 40.964C586.191 41.3 585.615 41.468 584.991 41.468C584.055 41.468 583.371 41.168 582.939 40.568C582.531 39.968 582.327 39.056 582.327 37.832V19.22ZM613.649 20.84H611.489C608.729 20.84 607.349 19.94 607.349 18.14C607.349 16.316 608.729 15.404 611.489 15.404H621.641C624.401 15.404 625.781 16.316 625.781 18.14C625.781 19.94 624.401 20.84 621.641 20.84H619.481V37.184C619.481 39.944 618.509 41.324 616.565 41.324C614.621 41.324 613.649 39.944 613.649 37.184V20.84ZM632.357 41C631.589 41 630.941 40.94 630.413 40.82C629.909 40.7 629.501 40.496 629.189 40.208C628.901 39.92 628.697 39.548 628.577 39.092C628.457 38.612 628.397 38.024 628.397 37.328V19.508C628.397 18.788 628.457 18.176 628.577 17.672C628.697 17.144 628.901 16.712 629.189 16.376C629.501 16.04 629.909 15.8 630.413 15.656C630.941 15.488 631.613 15.404 632.429 15.404H638.981C641.741 15.404 643.121 16.316 643.121 18.14C643.121 19.94 641.741 20.84 638.981 20.84H634.229V25.412H638.333C641.093 25.412 642.473 26.312 642.473 28.112C642.473 29.912 641.093 30.812 638.333 30.812H634.229V35.6H639.161C641.921 35.6 643.301 36.5 643.301 38.3C643.301 40.1 641.921 41 639.161 41H632.357ZM143.716 82.04H140.26C138.844 82.04 137.572 81.836 136.444 81.428C135.34 80.996 134.392 80.396 133.6 79.628C132.832 78.836 132.232 77.888 131.8 76.784C131.392 75.656 131.188 74.396 131.188 73.004C131.188 71.636 131.404 70.4 131.836 69.296C132.292 68.168 132.928 67.208 133.744 66.416C134.584 65.624 135.592 65.024 136.768 64.616C137.944 64.184 139.264 63.968 140.728 63.968H143.716C143.716 62.888 143.896 62.024 144.256 61.376C144.736 60.512 145.528 60.08 146.632 60.08C147.736 60.08 148.528 60.512 149.008 61.376C149.368 62.024 149.548 62.888 149.548 63.968H152.536C154 63.968 155.32 64.184 156.496 64.616C157.672 65.024 158.668 65.624 159.484 66.416C160.324 67.208 160.96 68.168 161.392 69.296C161.848 70.4 162.076 71.636 162.076 73.004C162.076 74.396 161.86 75.656 161.428 76.784C161.02 77.888 160.42 78.836 159.628 79.628C158.86 80.396 157.912 80.996 156.784 81.428C155.68 81.836 154.42 82.04 153.004 82.04H149.548V82.184C149.548 84.944 148.576 86.324 146.632 86.324C144.688 86.324 143.716 84.944 143.716 82.184V82.04ZM155.776 73.004C155.776 71.708 155.452 70.772 154.804 70.196C154.156 69.596 153.148 69.296 151.78 69.296H149.548V76.748H151.78C154.444 76.748 155.776 75.5 155.776 73.004ZM143.716 69.296H141.484C140.116 69.296 139.108 69.596 138.46 70.196C137.812 70.772 137.488 71.708 137.488 73.004C137.488 75.5 138.82 76.748 141.484 76.748H143.716V69.296ZM178.558 75.812L175.606 66.308L172.438 75.812H178.558ZM180.25 81.176H170.782L169.918 83.768C169.342 85.496 168.406 86.36 167.11 86.36C166.294 86.36 165.622 86.108 165.094 85.604C164.59 85.076 164.338 84.404 164.338 83.588C164.338 83.3 164.35 83.012 164.374 82.724C164.422 82.436 164.506 82.16 164.626 81.896L171.286 63.824C171.766 62.528 172.354 61.58 173.05 60.98C173.77 60.356 174.67 60.044 175.75 60.044C177.79 60.044 179.218 61.172 180.034 63.428L186.514 81.824C186.778 82.568 186.91 83.18 186.91 83.66C186.91 84.5 186.634 85.16 186.082 85.64C185.53 86.12 184.846 86.36 184.03 86.36C182.566 86.36 181.546 85.424 180.97 83.552L180.25 81.176ZM190.186 64.22C190.186 61.46 191.158 60.08 193.102 60.08C195.046 60.08 196.018 61.46 196.018 64.22V76.208L206.782 61.988C207.262 61.364 207.73 60.896 208.186 60.584C208.666 60.248 209.23 60.08 209.878 60.08C210.814 60.08 211.498 60.416 211.93 61.088C212.362 61.736 212.578 62.708 212.578 64.004V82.184C212.578 84.944 211.606 86.324 209.662 86.324C207.718 86.324 206.746 84.944 206.746 82.184V70.412L196.198 84.344C195.646 85.088 195.106 85.628 194.578 85.964C194.05 86.3 193.474 86.468 192.85 86.468C191.914 86.468 191.23 86.168 190.798 85.568C190.39 84.968 190.186 84.056 190.186 82.832V64.22ZM201.382 57.992C200.494 57.992 199.678 57.872 198.934 57.632C198.214 57.368 197.59 57.032 197.062 56.624C196.558 56.192 196.162 55.724 195.874 55.22C195.586 54.692 195.442 54.152 195.442 53.6C195.442 52.976 195.598 52.496 195.91 52.16C196.246 51.8 196.714 51.62 197.314 51.62C197.89 51.62 198.286 51.764 198.502 52.052C198.742 52.316 198.97 52.604 199.186 52.916C199.45 53.324 199.738 53.6 200.05 53.744C200.386 53.888 200.83 53.96 201.382 53.96C201.862 53.96 202.258 53.9 202.57 53.78C202.906 53.66 203.206 53.432 203.47 53.096C203.59 52.928 203.698 52.76 203.794 52.592C203.914 52.424 204.034 52.268 204.154 52.124C204.298 51.98 204.466 51.86 204.658 51.764C204.85 51.668 205.102 51.62 205.414 51.62C206.014 51.62 206.482 51.8 206.818 52.16C207.154 52.496 207.322 52.976 207.322 53.6C207.322 54.152 207.178 54.692 206.89 55.22C206.602 55.748 206.194 56.216 205.666 56.624C205.138 57.032 204.502 57.368 203.758 57.632C203.038 57.872 202.246 57.992 201.382 57.992ZM230.471 65.84H227.051L223.307 82.328C223.187 82.904 222.995 83.456 222.731 83.984C222.467 84.488 222.131 84.944 221.723 85.352C221.339 85.76 220.883 86.084 220.355 86.324C219.851 86.564 219.275 86.684 218.627 86.684C217.619 86.684 216.791 86.444 216.143 85.964C215.495 85.46 215.171 84.716 215.171 83.732C215.171 83.156 215.315 82.724 215.603 82.436C215.867 82.148 216.179 81.872 216.539 81.608C216.923 81.32 217.295 80.984 217.655 80.6C218.015 80.192 218.291 79.604 218.483 78.836L222.011 63.824C222.179 63.152 222.383 62.6 222.623 62.168C222.887 61.712 223.199 61.352 223.559 61.088C223.943 60.824 224.387 60.644 224.891 60.548C225.395 60.452 225.995 60.404 226.691 60.404H232.163C234.923 60.404 236.303 61.316 236.303 63.14V82.184C236.303 84.944 235.331 86.324 233.387 86.324C231.443 86.324 230.471 84.944 230.471 82.184V65.84ZM258.628 86C257.86 86 257.212 85.94 256.684 85.82C256.18 85.7 255.772 85.496 255.46 85.208C255.172 84.92 254.968 84.548 254.848 84.092C254.728 83.612 254.668 83.024 254.668 82.328V64.508C254.668 63.788 254.728 63.176 254.848 62.672C254.968 62.144 255.172 61.712 255.46 61.376C255.772 61.04 256.18 60.8 256.684 60.656C257.212 60.488 257.884 60.404 258.7 60.404H263.488C266.128 60.404 268.12 60.98 269.464 62.132C270.808 63.284 271.48 64.832 271.48 66.776C271.48 69.224 270.424 70.904 268.312 71.816C269.992 72.224 271.276 72.992 272.164 74.12C273.052 75.224 273.496 76.616 273.496 78.296C273.496 80.648 272.716 82.52 271.156 83.912C269.62 85.304 267.364 86 264.388 86H258.628ZM263.416 80.996C264.736 80.996 265.72 80.744 266.368 80.24C267.04 79.736 267.376 79.028 267.376 78.116C267.376 77.108 267.04 76.376 266.368 75.92C265.696 75.464 264.676 75.236 263.308 75.236H260.5V80.996H263.416ZM262.948 70.376C263.836 70.376 264.532 70.148 265.036 69.692C265.564 69.212 265.828 68.612 265.828 67.892C265.828 67.124 265.564 66.512 265.036 66.056C264.508 65.6 263.788 65.372 262.876 65.372H260.5V70.376H262.948ZM296.767 75.812C294.007 75.812 292.627 74.912 292.627 73.112C292.627 71.312 294.007 70.412 296.767 70.412H302.635C302.227 68.78 301.459 67.508 300.331 66.596C299.227 65.684 297.919 65.228 296.407 65.228C295.855 65.228 295.339 65.288 294.859 65.408C294.379 65.504 293.923 65.612 293.491 65.732C293.155 65.852 292.783 65.972 292.375 66.092C291.967 66.188 291.583 66.236 291.223 66.236C290.575 66.236 290.011 65.984 289.531 65.48C289.051 64.976 288.811 64.388 288.811 63.716C288.811 63.236 288.991 62.756 289.351 62.276C289.735 61.796 290.251 61.364 290.899 60.98C291.571 60.596 292.375 60.284 293.311 60.044C294.247 59.804 295.291 59.684 296.443 59.684C298.195 59.684 299.839 60.008 301.375 60.656C302.935 61.28 304.279 62.192 305.407 63.392C306.535 64.568 307.423 65.996 308.071 67.676C308.743 69.332 309.079 71.18 309.079 73.22C309.079 75.284 308.767 77.156 308.143 78.836C307.543 80.492 306.691 81.908 305.587 83.084C304.483 84.26 303.151 85.172 301.591 85.82C300.055 86.444 298.363 86.756 296.515 86.756C295.291 86.756 294.187 86.624 293.203 86.36C292.219 86.12 291.379 85.796 290.683 85.388C289.987 84.98 289.447 84.524 289.063 84.02C288.679 83.492 288.487 82.952 288.487 82.4C288.487 82.064 288.547 81.752 288.667 81.464C288.811 81.152 288.991 80.888 289.207 80.672C289.423 80.456 289.663 80.288 289.927 80.168C290.191 80.024 290.467 79.952 290.755 79.952C291.115 79.952 291.499 80.036 291.907 80.204C292.315 80.348 292.687 80.48 293.023 80.6C293.479 80.768 293.971 80.924 294.499 81.068C295.027 81.212 295.603 81.284 296.227 81.284C297.883 81.284 299.263 80.804 300.367 79.844C301.495 78.884 302.251 77.54 302.635 75.812H296.767ZM316.064 65.84H313.904C311.144 65.84 309.764 64.94 309.764 63.14C309.764 61.316 311.144 60.404 313.904 60.404H324.056C326.816 60.404 328.196 61.316 328.196 63.14C328.196 64.94 326.816 65.84 324.056 65.84H321.896V82.184C321.896 84.944 320.924 86.324 318.98 86.324C317.036 86.324 316.064 84.944 316.064 82.184V65.84ZM328.884 73.22C328.884 71.18 329.184 69.332 329.784 67.676C330.408 66.02 331.272 64.604 332.376 63.428C333.48 62.228 334.8 61.304 336.336 60.656C337.872 60.008 339.576 59.684 341.448 59.684C343.32 59.684 345.024 60.008 346.56 60.656C348.096 61.304 349.416 62.228 350.52 63.428C351.648 64.604 352.512 66.02 353.112 67.676C353.736 69.332 354.048 71.18 354.048 73.22C354.048 75.236 353.748 77.084 353.148 78.764C352.548 80.42 351.696 81.848 350.592 83.048C349.488 84.224 348.156 85.136 346.596 85.784C345.06 86.432 343.344 86.756 341.448 86.756C339.552 86.756 337.824 86.432 336.264 85.784C334.728 85.136 333.408 84.224 332.304 83.048C331.224 81.848 330.384 80.42 329.784 78.764C329.184 77.084 328.884 75.236 328.884 73.22ZM335.22 73.292C335.22 74.516 335.364 75.62 335.652 76.604C335.964 77.564 336.396 78.392 336.948 79.088C337.5 79.76 338.16 80.276 338.928 80.636C339.696 80.996 340.536 81.176 341.448 81.176C342.36 81.176 343.2 80.996 343.968 80.636C344.736 80.276 345.396 79.76 345.948 79.088C346.5 78.392 346.92 77.564 347.208 76.604C347.52 75.62 347.676 74.516 347.676 73.292C347.676 72.02 347.52 70.892 347.208 69.908C346.92 68.9 346.5 68.048 345.948 67.352C345.396 66.656 344.736 66.128 343.968 65.768C343.224 65.408 342.384 65.228 341.448 65.228C340.512 65.228 339.66 65.408 338.892 65.768C338.148 66.128 337.5 66.656 336.948 67.352C336.396 68.048 335.964 68.9 335.652 69.908C335.364 70.892 335.22 72.02 335.22 73.292ZM369.892 73.22C369.892 71.18 370.192 69.332 370.792 67.676C371.416 66.02 372.28 64.604 373.384 63.428C374.488 62.228 375.808 61.304 377.344 60.656C378.88 60.008 380.584 59.684 382.456 59.684C384.328 59.684 386.032 60.008 387.568 60.656C389.104 61.304 390.424 62.228 391.528 63.428C392.656 64.604 393.52 66.02 394.12 67.676C394.744 69.332 395.056 71.18 395.056 73.22C395.056 75.236 394.756 77.084 394.156 78.764C393.556 80.42 392.704 81.848 391.6 83.048C390.496 84.224 389.164 85.136 387.604 85.784C386.068 86.432 384.352 86.756 382.456 86.756C380.56 86.756 378.832 86.432 377.272 85.784C375.736 85.136 374.416 84.224 373.312 83.048C372.232 81.848 371.392 80.42 370.792 78.764C370.192 77.084 369.892 75.236 369.892 73.22ZM376.228 73.292C376.228 74.516 376.372 75.62 376.66 76.604C376.972 77.564 377.404 78.392 377.956 79.088C378.508 79.76 379.168 80.276 379.936 80.636C380.704 80.996 381.544 81.176 382.456 81.176C383.368 81.176 384.208 80.996 384.976 80.636C385.744 80.276 386.404 79.76 386.956 79.088C387.508 78.392 387.928 77.564 388.216 76.604C388.528 75.62 388.684 74.516 388.684 73.292C388.684 72.02 388.528 70.892 388.216 69.908C387.928 68.9 387.508 68.048 386.956 67.352C386.404 66.656 385.744 66.128 384.976 65.768C384.232 65.408 383.392 65.228 382.456 65.228C381.52 65.228 380.668 65.408 379.9 65.768C379.156 66.128 378.508 66.656 377.956 67.352C377.404 68.048 376.972 68.9 376.66 69.908C376.372 70.892 376.228 72.02 376.228 73.292ZM399.408 64.22C399.408 61.46 400.38 60.08 402.324 60.08C404.268 60.08 405.24 61.46 405.24 64.22V70.556L412.656 62.168C413.208 61.544 413.712 61.052 414.168 60.692C414.648 60.332 415.152 60.152 415.68 60.152C416.376 60.152 416.988 60.416 417.516 60.944C418.044 61.472 418.308 62.096 418.308 62.816C418.308 63.704 417.816 64.664 416.832 65.696L410.532 72.248C411.972 73.568 413.376 74.936 414.744 76.352C416.112 77.744 417.396 79.208 418.596 80.744C418.884 81.128 419.148 81.548 419.388 82.004C419.628 82.436 419.748 82.892 419.748 83.372C419.748 83.732 419.664 84.092 419.496 84.452C419.352 84.812 419.136 85.136 418.848 85.424C418.584 85.688 418.272 85.904 417.912 86.072C417.576 86.24 417.228 86.324 416.868 86.324C416.172 86.324 415.608 86.108 415.176 85.676C414.768 85.244 414.372 84.776 413.988 84.272C412.668 82.52 411.276 80.852 409.812 79.268C408.372 77.684 406.848 76.136 405.24 74.624V82.184C405.24 84.944 404.268 86.324 402.324 86.324C400.38 86.324 399.408 84.944 399.408 82.184V64.22ZM422.671 64.22C422.671 61.46 423.643 60.08 425.587 60.08C427.531 60.08 428.503 61.46 428.503 64.22V70.268H439.231V64.22C439.231 61.46 440.203 60.08 442.147 60.08C444.091 60.08 445.063 61.46 445.063 64.22V82.184C445.063 84.944 444.091 86.324 442.147 86.324C440.203 86.324 439.231 84.944 439.231 82.184V75.668H428.503V82.184C428.503 84.944 427.531 86.324 425.587 86.324C423.643 86.324 422.671 84.944 422.671 82.184V64.22ZM449.421 73.22C449.421 71.18 449.721 69.332 450.321 67.676C450.945 66.02 451.809 64.604 452.913 63.428C454.017 62.228 455.337 61.304 456.873 60.656C458.409 60.008 460.113 59.684 461.985 59.684C463.857 59.684 465.561 60.008 467.097 60.656C468.633 61.304 469.953 62.228 471.057 63.428C472.185 64.604 473.049 66.02 473.649 67.676C474.273 69.332 474.585 71.18 474.585 73.22C474.585 75.236 474.285 77.084 473.685 78.764C473.085 80.42 472.233 81.848 471.129 83.048C470.025 84.224 468.693 85.136 467.133 85.784C465.597 86.432 463.881 86.756 461.985 86.756C460.089 86.756 458.361 86.432 456.801 85.784C455.265 85.136 453.945 84.224 452.841 83.048C451.761 81.848 450.921 80.42 450.321 78.764C449.721 77.084 449.421 75.236 449.421 73.22ZM455.757 73.292C455.757 74.516 455.901 75.62 456.189 76.604C456.501 77.564 456.933 78.392 457.485 79.088C458.037 79.76 458.697 80.276 459.465 80.636C460.233 80.996 461.073 81.176 461.985 81.176C462.897 81.176 463.737 80.996 464.505 80.636C465.273 80.276 465.933 79.76 466.485 79.088C467.037 78.392 467.457 77.564 467.745 76.604C468.057 75.62 468.213 74.516 468.213 73.292C468.213 72.02 468.057 70.892 467.745 69.908C467.457 68.9 467.037 68.048 466.485 67.352C465.933 66.656 465.273 66.128 464.505 65.768C463.761 65.408 462.921 65.228 461.985 65.228C461.049 65.228 460.197 65.408 459.429 65.768C458.685 66.128 458.037 66.656 457.485 67.352C456.933 68.048 456.501 68.9 456.189 69.908C455.901 70.892 455.757 72.02 455.757 73.292Z" fill="#5E2A2B"/>
<g filter="url(#filter0_d)">
<rect x="0.105469" y="0.355591" width="96.7888" height="96.7888" rx="4.5" fill="#5E2A2B"/>
</g>
<g clip-path="url(#clip0)">
<path d="M55.1185 62.7822C55.1185 63.1211 55.1185 63.3707 55.1185 63.6203C55.1185 67.333 55.1199 71.0442 55.1185 74.7568C55.1171 77.2965 53.3108 79.1054 50.7397 79.1096C43.8871 79.1193 37.0332 79.1193 30.1806 79.1096C27.6052 79.1054 25.8074 77.3132 25.8032 74.7568C25.7961 71.1613 25.8088 67.5645 25.8116 63.969C25.8116 63.6036 25.8116 63.2382 25.8116 62.7835C25.4603 62.7835 25.1851 62.7835 24.9113 62.7835C22.1892 62.7835 19.4671 62.7877 16.7436 62.7822C15.7953 62.7808 15.1786 62.3707 15.0332 61.6469C14.895 60.9537 15.1984 60.4614 15.7529 60.0374C21.0165 55.9985 26.2689 51.9456 31.5254 47.8968C34.0246 45.9722 36.5223 44.0475 39.0215 42.1243C40.0883 41.3042 40.832 41.2903 41.8762 42.095C49.6334 48.0642 57.3891 54.0362 65.1448 60.0096C65.9294 60.6134 66.1411 61.2299 65.8038 61.9202C65.475 62.5939 64.8809 62.7877 64.1739 62.7863C61.4052 62.7822 58.6351 62.7849 55.8664 62.7849C55.6548 62.7822 55.4459 62.7822 55.1185 62.7822ZM72.0764 42.1006C72.075 51.6611 72.0792 61.2229 72.0608 70.7834C72.0566 73.3328 70.0387 75.3091 67.452 75.3551C66.2779 75.376 65.1039 75.3481 63.9312 75.3635C62.7204 75.3788 61.9005 76.171 61.8977 77.2979C61.8949 78.4248 62.7218 79.2309 63.9199 79.2448C65.094 79.2574 66.2681 79.2504 67.4407 79.2476C72.1991 79.2379 75.9782 75.5015 75.9796 70.8057C75.981 60.9426 75.9923 51.0795 75.9726 41.2178C75.9669 38.0951 76.3973 38.9375 74.0689 36.646C68.0969 30.7675 62.1235 24.8917 56.1614 19.0034C55.6449 18.493 55.0917 18.2671 54.3523 18.2685C47.3092 18.2852 40.2647 18.3438 33.223 18.2503C29.5385 18.2015 25.0285 21.2809 24.8662 26.2181C24.749 29.7884 24.8267 33.3644 24.821 36.9375C24.8196 37.9124 24.797 38.8887 24.8464 39.8607C24.9 40.9486 25.7665 41.6919 26.8587 41.6641C27.9721 41.6348 28.7737 40.7519 28.7751 39.5135C28.7821 35.3364 28.7779 31.1594 28.7779 26.9824C28.7779 24.0577 30.7084 22.1359 33.6591 22.1345C39.5041 22.1317 45.3505 22.1331 51.1955 22.1331C51.4453 22.1331 51.6965 22.1331 52.0182 22.1331C52.0182 22.5864 52.0182 22.9518 52.0182 23.3172C52.0154 26.5193 51.9942 29.7229 52.0112 32.925C52.038 37.865 55.7705 41.526 60.766 41.5344C64.0525 41.5399 67.3391 41.5357 70.6257 41.5357C71.0688 41.5357 71.5119 41.5357 72.0284 41.5357C72.051 41.784 72.0764 41.9416 72.0764 42.1006ZM60.3384 37.6223C58.0072 37.5763 56.0231 35.6196 55.9765 33.3309C55.9186 30.4551 55.9596 27.5779 55.961 24.7021C55.961 24.6407 55.9948 24.5779 56.0061 24.5417C60.3976 28.9251 64.7892 33.3072 69.1285 37.6376C66.2963 37.6362 63.3159 37.6809 60.3384 37.6223Z" fill="white"/>
</g>
<defs>
<filter id="filter0_d" x="0.105469" y="0.355591" width="96.7888" height="102.789" filterUnits="userSpaceOnUse" color-interpolation-filters="sRGB">
<feFlood flood-opacity="0" result="BackgroundImageFix"/>
<feColorMatrix in="SourceAlpha" type="matrix" values="0 0 0 0 0 0 0 0 0 0 0 0 0 0 0 0 0 0 127 0"/>
<feOffset dy="6"/>
<feColorMatrix type="matrix" values="0 0 0 0 0 0 0 0 0 0 0 0 0 0 0 0 0 0 0.15 0"/>
<feBlend mode="normal" in2="BackgroundImageFix" result="effect1_dropShadow"/>
<feBlend mode="normal" in="SourceGraphic" in2="effect1_dropShadow" result="shape"/>
</filter>
<clipPath id="clip0">
<rect width="61" height="61" fill="white" transform="translate(15 18.25)"/>
</clipPath>
</defs>
</svg>
