<svg width="267" height="148" viewBox="0 0 267 148" fill="none" xmlns="http://www.w3.org/2000/svg">
<path d="M29.5006 98.48C29.5006 96.64 30.1486 95.72 31.4446 95.72C32.7406 95.72 33.3886 96.64 33.3886 98.48V102.512H40.5406V98.48C40.5406 96.64 41.1886 95.72 42.4846 95.72C43.7806 95.72 44.4286 96.64 44.4286 98.48V110.456C44.4286 112.296 43.7806 113.216 42.4846 113.216C41.1886 113.216 40.5406 112.296 40.5406 110.456V106.112H33.3886V110.456C33.3886 112.296 32.7406 113.216 31.4446 113.216C30.1486 113.216 29.5006 112.296 29.5006 110.456V98.48ZM56.1417 106.208L54.1737 99.872L52.0617 106.208H56.1417ZM57.2697 109.784H50.9577L50.3817 111.512C49.9977 112.664 49.3737 113.24 48.5097 113.24C47.9657 113.24 47.5177 113.072 47.1657 112.736C46.8297 112.384 46.6617 111.936 46.6617 111.392C46.6617 111.2 46.6697 111.008 46.6857 110.816C46.7177 110.624 46.7737 110.44 46.8537 110.264L51.2937 98.216C51.6137 97.352 52.0057 96.72 52.4697 96.32C52.9497 95.904 53.5497 95.696 54.2697 95.696C55.6297 95.696 56.5817 96.448 57.1257 97.952L61.4457 110.216C61.6217 110.712 61.7097 111.12 61.7097 111.44C61.7097 112 61.5257 112.44 61.1577 112.76C60.7897 113.08 60.3337 113.24 59.7897 113.24C58.8137 113.24 58.1337 112.616 57.7497 111.368L57.2697 109.784ZM70.3497 105.32C69.5817 106.328 68.8457 107.352 68.1417 108.392C67.4537 109.416 66.8057 110.48 66.1977 111.584C65.9737 111.984 65.7177 112.36 65.4297 112.712C65.1577 113.048 64.7657 113.216 64.2537 113.216C63.9977 113.216 63.7497 113.16 63.5097 113.048C63.2857 112.952 63.0777 112.816 62.8857 112.64C62.7097 112.464 62.5657 112.264 62.4537 112.04C62.3417 111.8 62.2857 111.552 62.2857 111.296C62.2857 111.008 62.3337 110.736 62.4297 110.48C62.5417 110.208 62.6697 109.944 62.8137 109.688C63.4057 108.632 64.0537 107.624 64.7577 106.664C65.4617 105.704 66.1977 104.76 66.9657 103.832L63.7017 99.296C63.5097 99.024 63.3417 98.736 63.1977 98.432C63.0537 98.128 62.9817 97.816 62.9817 97.496C62.9817 97.016 63.1577 96.6 63.5097 96.248C63.8617 95.896 64.2777 95.72 64.7577 95.72C64.9977 95.72 65.2137 95.776 65.4057 95.888C65.6137 95.984 65.7977 96.112 65.9577 96.272C66.1177 96.432 66.2617 96.608 66.3897 96.8C66.5337 96.992 66.6697 97.176 66.7977 97.352L70.3497 102.752V98.48C70.3497 97.552 70.4937 96.864 70.7817 96.416C71.0857 95.952 71.5737 95.72 72.2457 95.72C72.9177 95.72 73.3977 95.952 73.6857 96.416C73.9897 96.864 74.1417 97.552 74.1417 98.48V102.752L77.6937 97.352C77.8057 97.176 77.9337 96.992 78.0777 96.8C78.2217 96.608 78.3737 96.432 78.5337 96.272C78.6937 96.112 78.8697 95.984 79.0617 95.888C79.2697 95.776 79.4937 95.72 79.7337 95.72C80.2137 95.72 80.6297 95.896 80.9817 96.248C81.3337 96.6 81.5097 97.016 81.5097 97.496C81.5097 97.816 81.4377 98.128 81.2937 98.432C81.1497 98.736 80.9817 99.024 80.7897 99.296L77.5257 103.832C78.2937 104.76 79.0297 105.704 79.7337 106.664C80.4377 107.624 81.0857 108.632 81.6777 109.688C81.8217 109.944 81.9417 110.208 82.0377 110.48C82.1497 110.736 82.2057 111.008 82.2057 111.296C82.2057 111.552 82.1497 111.8 82.0377 112.04C81.9257 112.264 81.7737 112.464 81.5817 112.64C81.4057 112.816 81.1977 112.952 80.9577 113.048C80.7337 113.16 80.4937 113.216 80.2377 113.216C79.7257 113.216 79.3257 113.048 79.0377 112.712C78.7657 112.36 78.5177 111.984 78.2937 111.584C77.6857 110.48 77.0297 109.416 76.3257 108.392C75.6377 107.352 74.9097 106.328 74.1417 105.32V110.456C74.1417 111.384 73.9897 112.08 73.6857 112.544C73.3977 112.992 72.9177 113.216 72.2457 113.216C71.5737 113.216 71.0857 112.992 70.7817 112.544C70.4937 112.08 70.3497 111.384 70.3497 110.456V105.32ZM88.4761 100.76L87.1321 110.72C87.0041 111.584 86.7801 112.224 86.4601 112.64C86.1561 113.04 85.7001 113.24 85.0921 113.24C84.5321 113.24 84.0761 113.064 83.7241 112.712C83.3721 112.344 83.1961 111.84 83.1961 111.2C83.1961 110.896 83.2441 110.504 83.3401 110.024L85.4281 98.384C85.5881 97.488 85.8601 96.824 86.2441 96.392C86.6281 95.944 87.2361 95.72 88.0681 95.72C89.4921 95.72 90.3961 96.488 90.7801 98.024L93.3721 108.224L95.7961 98C96.1641 96.48 97.0521 95.72 98.4601 95.72C99.3241 95.72 99.9561 95.952 100.356 96.416C100.756 96.864 101.036 97.568 101.196 98.528L103.092 110.264C103.156 110.632 103.188 110.944 103.188 111.2C103.188 111.84 103.004 112.344 102.636 112.712C102.268 113.064 101.796 113.24 101.22 113.24C100.132 113.24 99.4921 112.48 99.3001 110.96L98.0761 100.76C97.2601 104.248 96.5961 106.968 96.0841 108.92C95.5881 110.872 95.1961 112.08 94.9081 112.544C94.7321 112.816 94.5161 113 94.2601 113.096C94.0041 113.192 93.6761 113.24 93.2761 113.24C92.6361 113.24 92.1401 113.096 91.7881 112.808C91.4361 112.52 91.1721 112.008 90.9961 111.272L88.4761 100.76ZM105.787 98.48C105.787 96.64 106.435 95.72 107.731 95.72C109.027 95.72 109.675 96.64 109.675 98.48V106.472L116.851 96.992C117.171 96.576 117.483 96.264 117.787 96.056C118.107 95.832 118.483 95.72 118.915 95.72C119.539 95.72 119.995 95.944 120.283 96.392C120.571 96.824 120.715 97.472 120.715 98.336V110.456C120.715 112.296 120.067 113.216 118.771 113.216C117.475 113.216 116.827 112.296 116.827 110.456V102.608L109.795 111.896C109.427 112.392 109.067 112.752 108.715 112.976C108.363 113.2 107.979 113.312 107.563 113.312C106.939 113.312 106.483 113.112 106.195 112.712C105.923 112.312 105.787 111.704 105.787 110.888V98.48ZM126.668 99.56H125.228C123.388 99.56 122.468 98.96 122.468 97.76C122.468 96.544 123.388 95.936 125.228 95.936H131.996C133.836 95.936 134.756 96.544 134.756 97.76C134.756 98.96 133.836 99.56 131.996 99.56H130.556V110.456C130.556 112.296 129.908 113.216 128.612 113.216C127.316 113.216 126.668 112.296 126.668 110.456V99.56ZM139.14 113C138.628 113 138.196 112.96 137.844 112.88C137.508 112.8 137.236 112.664 137.028 112.472C136.836 112.28 136.7 112.032 136.62 111.728C136.54 111.408 136.5 111.016 136.5 110.552V98.672C136.5 98.192 136.54 97.784 136.62 97.448C136.7 97.096 136.836 96.808 137.028 96.584C137.236 96.36 137.508 96.2 137.844 96.104C138.196 95.992 138.644 95.936 139.188 95.936H143.556C145.396 95.936 146.316 96.544 146.316 97.76C146.316 98.96 145.396 99.56 143.556 99.56H140.388V102.608H143.124C144.964 102.608 145.884 103.208 145.884 104.408C145.884 105.608 144.964 106.208 143.124 106.208H140.388V109.4H143.676C145.516 109.4 146.436 110 146.436 111.2C146.436 112.4 145.516 113 143.676 113H139.14ZM165.927 105.656C165.319 105.992 164.703 106.248 164.079 106.424C163.455 106.6 162.791 106.688 162.087 106.688C160.423 106.688 159.175 106.216 158.343 105.272C157.511 104.312 157.095 103.024 157.095 101.408V98.48C157.095 96.64 157.743 95.72 159.039 95.72C160.335 95.72 160.983 96.64 160.983 98.48V100.256C160.983 100.656 160.999 101.04 161.031 101.408C161.063 101.76 161.151 102.072 161.295 102.344C161.439 102.6 161.647 102.808 161.919 102.968C162.207 103.112 162.599 103.184 163.095 103.184C163.639 103.184 164.143 103.088 164.607 102.896C165.071 102.704 165.511 102.448 165.927 102.128V98.48C165.927 96.64 166.575 95.72 167.871 95.72C169.167 95.72 169.815 96.64 169.815 98.48V110.456C169.815 112.296 169.167 113.216 167.871 113.216C166.575 113.216 165.927 112.296 165.927 110.456V105.656ZM175.767 99.56H174.327C172.487 99.56 171.567 98.96 171.567 97.76C171.567 96.544 172.487 95.936 174.327 95.936H181.095C182.935 95.936 183.855 96.544 183.855 97.76C183.855 98.96 182.935 99.56 181.095 99.56H179.655V110.456C179.655 112.296 179.007 113.216 177.711 113.216C176.415 113.216 175.767 112.296 175.767 110.456V99.56ZM184.314 104.48C184.314 103.12 184.514 101.888 184.914 100.784C185.33 99.68 185.906 98.736 186.642 97.952C187.378 97.152 188.258 96.536 189.282 96.104C190.306 95.672 191.442 95.456 192.69 95.456C193.938 95.456 195.074 95.672 196.098 96.104C197.122 96.536 198.002 97.152 198.738 97.952C199.49 98.736 200.066 99.68 200.466 100.784C200.882 101.888 201.09 103.12 201.09 104.48C201.09 105.824 200.89 107.056 200.49 108.176C200.09 109.28 199.522 110.232 198.786 111.032C198.05 111.816 197.162 112.424 196.122 112.856C195.098 113.288 193.954 113.504 192.69 113.504C191.426 113.504 190.274 113.288 189.234 112.856C188.21 112.424 187.33 111.816 186.594 111.032C185.874 110.232 185.314 109.28 184.914 108.176C184.514 107.056 184.314 105.824 184.314 104.48ZM188.538 104.528C188.538 105.344 188.634 106.08 188.826 106.736C189.034 107.376 189.322 107.928 189.69 108.392C190.058 108.84 190.498 109.184 191.01 109.424C191.522 109.664 192.082 109.784 192.69 109.784C193.298 109.784 193.858 109.664 194.37 109.424C194.882 109.184 195.322 108.84 195.69 108.392C196.058 107.928 196.338 107.376 196.53 106.736C196.738 106.08 196.842 105.344 196.842 104.528C196.842 103.68 196.738 102.928 196.53 102.272C196.338 101.6 196.058 101.032 195.69 100.568C195.322 100.104 194.882 99.752 194.37 99.512C193.874 99.272 193.314 99.152 192.69 99.152C192.066 99.152 191.498 99.272 190.986 99.512C190.49 99.752 190.058 100.104 189.69 100.568C189.322 101.032 189.034 101.6 188.826 102.272C188.634 102.928 188.538 103.68 188.538 104.528ZM206.631 113C206.119 113 205.687 112.96 205.335 112.88C204.999 112.8 204.727 112.664 204.519 112.472C204.327 112.28 204.191 112.032 204.111 111.728C204.031 111.408 203.991 111.016 203.991 110.552V98.672C203.991 98.192 204.031 97.784 204.111 97.448C204.191 97.096 204.327 96.808 204.519 96.584C204.727 96.36 204.999 96.2 205.335 96.104C205.687 95.992 206.135 95.936 206.679 95.936H212.583C214.311 95.936 215.175 96.504 215.175 97.64C215.175 98.76 214.311 99.32 212.583 99.32H207.879V102.512H210.471C212.471 102.512 213.983 102.984 215.007 103.928C216.031 104.872 216.543 106.144 216.543 107.744C216.543 109.344 216.031 110.624 215.007 111.584C213.983 112.528 212.471 113 210.471 113H206.631ZM212.463 107.744C212.463 107.072 212.239 106.584 211.791 106.28C211.343 105.976 210.663 105.824 209.751 105.824H207.879V109.664H209.823C210.703 109.664 211.359 109.496 211.791 109.16C212.239 108.824 212.463 108.352 212.463 107.744ZM222.14 113C221.628 113 221.196 112.96 220.844 112.88C220.508 112.8 220.236 112.664 220.028 112.472C219.836 112.28 219.7 112.032 219.62 111.728C219.54 111.408 219.5 111.016 219.5 110.552V98.48C219.5 96.64 220.148 95.72 221.444 95.72C222.74 95.72 223.388 96.64 223.388 98.48V102.512H225.86C227.86 102.512 229.372 102.984 230.396 103.928C231.42 104.872 231.932 106.144 231.932 107.744C231.932 109.344 231.42 110.624 230.396 111.584C229.372 112.528 227.86 113 225.86 113H222.14ZM227.852 107.744C227.852 107.072 227.628 106.584 227.18 106.28C226.732 105.976 226.052 105.824 225.14 105.824H223.388V109.664H225.212C226.092 109.664 226.748 109.496 227.18 109.16C227.628 108.824 227.852 108.352 227.852 107.744ZM237.5 110.456C237.5 112.296 236.852 113.216 235.556 113.216C234.26 113.216 233.612 112.296 233.612 110.456V98.48C233.612 96.64 234.26 95.72 235.556 95.72C236.852 95.72 237.5 96.64 237.5 98.48V110.456ZM28.8914 142.16C28.8914 140.32 29.5394 139.4 30.8354 139.4H30.8834C31.4434 137.416 31.9474 135.488 32.3954 133.616C32.8594 131.744 33.2834 129.944 33.6674 128.216C33.7634 127.768 33.8914 127.4 34.0514 127.112C34.2274 126.808 34.4434 126.568 34.6994 126.392C34.9554 126.216 35.2514 126.096 35.5874 126.032C35.9234 125.968 36.3234 125.936 36.7874 125.936H40.1954C42.0354 125.936 42.9554 126.544 42.9554 127.76V139.4H43.0034C44.2994 139.4 44.9474 140.32 44.9474 142.16V143.648C44.9474 145.488 44.2994 146.408 43.0034 146.408C41.7074 146.408 41.0594 145.488 41.0594 143.648V143H32.7794V143.648C32.7794 145.488 32.1314 146.408 30.8354 146.408C29.5394 146.408 28.8914 145.488 28.8914 143.648V142.16ZM39.0674 139.4V129.56H36.7874C36.4354 131.208 36.0834 132.856 35.7314 134.504C35.3794 136.136 34.9874 137.768 34.5554 139.4H39.0674ZM45.8572 134.48C45.8572 133.12 46.0572 131.888 46.4572 130.784C46.8732 129.68 47.4492 128.736 48.1852 127.952C48.9212 127.152 49.8012 126.536 50.8252 126.104C51.8492 125.672 52.9852 125.456 54.2332 125.456C55.4812 125.456 56.6172 125.672 57.6412 126.104C58.6652 126.536 59.5452 127.152 60.2812 127.952C61.0332 128.736 61.6092 129.68 62.0092 130.784C62.4252 131.888 62.6332 133.12 62.6332 134.48C62.6332 135.824 62.4332 137.056 62.0332 138.176C61.6332 139.28 61.0652 140.232 60.3292 141.032C59.5932 141.816 58.7052 142.424 57.6652 142.856C56.6412 143.288 55.4972 143.504 54.2332 143.504C52.9692 143.504 51.8172 143.288 50.7772 142.856C49.7532 142.424 48.8732 141.816 48.1372 141.032C47.4172 140.232 46.8572 139.28 46.4572 138.176C46.0572 137.056 45.8572 135.824 45.8572 134.48ZM50.0812 134.528C50.0812 135.344 50.1772 136.08 50.3692 136.736C50.5772 137.376 50.8652 137.928 51.2332 138.392C51.6012 138.84 52.0412 139.184 52.5532 139.424C53.0652 139.664 53.6252 139.784 54.2332 139.784C54.8412 139.784 55.4012 139.664 55.9132 139.424C56.4252 139.184 56.8652 138.84 57.2332 138.392C57.6012 137.928 57.8812 137.376 58.0732 136.736C58.2812 136.08 58.3852 135.344 58.3852 134.528C58.3852 133.68 58.2812 132.928 58.0732 132.272C57.8812 131.6 57.6012 131.032 57.2332 130.568C56.8652 130.104 56.4252 129.752 55.9132 129.512C55.4172 129.272 54.8572 129.152 54.2332 129.152C53.6092 129.152 53.0412 129.272 52.5292 129.512C52.0332 129.752 51.6012 130.104 51.2332 130.568C50.8652 131.032 50.5772 131.6 50.3692 132.272C50.1772 132.928 50.0812 133.68 50.0812 134.528ZM68.1743 143C67.6623 143 67.2303 142.96 66.8783 142.88C66.5423 142.8 66.2703 142.664 66.0623 142.472C65.8703 142.28 65.7343 142.032 65.6543 141.728C65.5743 141.408 65.5343 141.016 65.5343 140.552V128.672C65.5343 128.192 65.5743 127.784 65.6543 127.448C65.7343 127.096 65.8703 126.808 66.0623 126.584C66.2703 126.36 66.5423 126.2 66.8783 126.104C67.2303 125.992 67.6783 125.936 68.2223 125.936H74.1263C75.8543 125.936 76.7183 126.504 76.7183 127.64C76.7183 128.76 75.8543 129.32 74.1263 129.32H69.4223V132.512H72.0143C74.0143 132.512 75.5263 132.984 76.5503 133.928C77.5743 134.872 78.0863 136.144 78.0863 137.744C78.0863 139.344 77.5743 140.624 76.5503 141.584C75.5263 142.528 74.0143 143 72.0143 143H68.1743ZM74.0063 137.744C74.0063 137.072 73.7823 136.584 73.3343 136.28C72.8863 135.976 72.2063 135.824 71.2943 135.824H69.4223V139.664H71.3663C72.2463 139.664 72.9023 139.496 73.3343 139.16C73.7823 138.824 74.0063 138.352 74.0063 137.744ZM89.0114 136.208L87.0434 129.872L84.9314 136.208H89.0114ZM90.1394 139.784H83.8274L83.2514 141.512C82.8674 142.664 82.2434 143.24 81.3794 143.24C80.8354 143.24 80.3874 143.072 80.0354 142.736C79.6994 142.384 79.5314 141.936 79.5314 141.392C79.5314 141.2 79.5394 141.008 79.5554 140.816C79.5874 140.624 79.6434 140.44 79.7234 140.264L84.1634 128.216C84.4834 127.352 84.8754 126.72 85.3394 126.32C85.8194 125.904 86.4194 125.696 87.1394 125.696C88.4994 125.696 89.4514 126.448 89.9954 127.952L94.3154 140.216C94.4914 140.712 94.5794 141.12 94.5794 141.44C94.5794 142 94.3954 142.44 94.0274 142.76C93.6594 143.08 93.2034 143.24 92.6594 143.24C91.6834 143.24 91.0034 142.616 90.6194 141.368L90.1394 139.784ZM99.4034 143C98.8914 143 98.4594 142.96 98.1074 142.88C97.7714 142.8 97.4994 142.664 97.2914 142.472C97.0994 142.28 96.9634 142.032 96.8834 141.728C96.8034 141.408 96.7634 141.016 96.7634 140.552V128.672C96.7634 128.192 96.8034 127.784 96.8834 127.448C96.9634 127.096 97.0994 126.808 97.2914 126.584C97.4994 126.36 97.7714 126.2 98.1074 126.104C98.4594 125.992 98.9074 125.936 99.4514 125.936H102.643C104.403 125.936 105.731 126.32 106.627 127.088C107.523 127.856 107.971 128.888 107.971 130.184C107.971 131.816 107.267 132.936 105.859 133.544C106.979 133.816 107.835 134.328 108.427 135.08C109.019 135.816 109.315 136.744 109.315 137.864C109.315 139.432 108.795 140.68 107.755 141.608C106.731 142.536 105.227 143 103.243 143H99.4034ZM102.595 139.664C103.475 139.664 104.131 139.496 104.563 139.16C105.011 138.824 105.235 138.352 105.235 137.744C105.235 137.072 105.011 136.584 104.563 136.28C104.115 135.976 103.435 135.824 102.523 135.824H100.651V139.664H102.595ZM102.283 132.584C102.875 132.584 103.339 132.432 103.675 132.128C104.027 131.808 104.203 131.408 104.203 130.928C104.203 130.416 104.027 130.008 103.675 129.704C103.323 129.4 102.843 129.248 102.235 129.248H100.651V132.584H102.283ZM112.272 128.48C112.272 126.64 112.92 125.72 114.216 125.72C115.512 125.72 116.16 126.64 116.16 128.48V136.472L123.336 126.992C123.656 126.576 123.968 126.264 124.272 126.056C124.592 125.832 124.968 125.72 125.4 125.72C126.024 125.72 126.48 125.944 126.768 126.392C127.056 126.824 127.2 127.472 127.2 128.336V140.456C127.2 142.296 126.552 143.216 125.256 143.216C123.96 143.216 123.312 142.296 123.312 140.456V132.608L116.28 141.896C115.912 142.392 115.552 142.752 115.2 142.976C114.848 143.2 114.464 143.312 114.048 143.312C113.424 143.312 112.968 143.112 112.68 142.712C112.408 142.312 112.272 141.704 112.272 140.888V128.48ZM133.154 129.56H131.714C129.874 129.56 128.954 128.96 128.954 127.76C128.954 126.544 129.874 125.936 131.714 125.936H138.482C140.322 125.936 141.242 126.544 141.242 127.76C141.242 128.96 140.322 129.56 138.482 129.56H137.042V140.456C137.042 142.296 136.394 143.216 135.098 143.216C133.802 143.216 133.154 142.296 133.154 140.456V129.56ZM145.626 143C145.114 143 144.682 142.96 144.33 142.88C143.994 142.8 143.722 142.664 143.514 142.472C143.322 142.28 143.186 142.032 143.106 141.728C143.026 141.408 142.986 141.016 142.986 140.552V128.48C142.986 126.64 143.634 125.72 144.93 125.72C146.226 125.72 146.874 126.64 146.874 128.48V132.512H149.346C151.346 132.512 152.858 132.984 153.882 133.928C154.906 134.872 155.418 136.144 155.418 137.744C155.418 139.344 154.906 140.624 153.882 141.584C152.858 142.528 151.346 143 149.346 143H145.626ZM151.338 137.744C151.338 137.072 151.114 136.584 150.666 136.28C150.218 135.976 149.538 135.824 148.626 135.824H146.874V139.664H148.698C149.578 139.664 150.234 139.496 150.666 139.16C151.114 138.824 151.338 138.352 151.338 137.744ZM174.394 140.36H172.09C171.146 140.36 170.298 140.224 169.546 139.952C168.81 139.664 168.178 139.264 167.65 138.752C167.138 138.224 166.738 137.592 166.45 136.856C166.178 136.104 166.042 135.264 166.042 134.336C166.042 133.424 166.186 132.6 166.474 131.864C166.778 131.112 167.202 130.472 167.746 129.944C168.306 129.416 168.978 129.016 169.762 128.744C170.546 128.456 171.426 128.312 172.402 128.312H174.394C174.394 127.592 174.514 127.016 174.754 126.584C175.074 126.008 175.602 125.72 176.338 125.72C177.074 125.72 177.602 126.008 177.922 126.584C178.162 127.016 178.282 127.592 178.282 128.312H180.274C181.25 128.312 182.13 128.456 182.914 128.744C183.698 129.016 184.362 129.416 184.906 129.944C185.466 130.472 185.89 131.112 186.178 131.864C186.482 132.6 186.634 133.424 186.634 134.336C186.634 135.264 186.49 136.104 186.202 136.856C185.93 137.592 185.53 138.224 185.002 138.752C184.49 139.264 183.858 139.664 183.106 139.952C182.37 140.224 181.53 140.36 180.586 140.36H178.282V140.456C178.282 142.296 177.634 143.216 176.338 143.216C175.042 143.216 174.394 142.296 174.394 140.456V140.36ZM182.434 134.336C182.434 133.472 182.218 132.848 181.786 132.464C181.354 132.064 180.682 131.864 179.77 131.864H178.282V136.832H179.77C181.546 136.832 182.434 136 182.434 134.336ZM174.394 131.864H172.906C171.994 131.864 171.322 132.064 170.89 132.464C170.458 132.848 170.242 133.472 170.242 134.336C170.242 136 171.13 136.832 172.906 136.832H174.394V131.864ZM197.622 136.208L195.654 129.872L193.542 136.208H197.622ZM198.75 139.784H192.438L191.862 141.512C191.478 142.664 190.854 143.24 189.99 143.24C189.446 143.24 188.998 143.072 188.646 142.736C188.31 142.384 188.142 141.936 188.142 141.392C188.142 141.2 188.15 141.008 188.166 140.816C188.198 140.624 188.254 140.44 188.334 140.264L192.774 128.216C193.094 127.352 193.486 126.72 193.95 126.32C194.43 125.904 195.03 125.696 195.75 125.696C197.11 125.696 198.062 126.448 198.606 127.952L202.926 140.216C203.102 140.712 203.19 141.12 203.19 141.44C203.19 142 203.006 142.44 202.638 142.76C202.27 143.08 201.814 143.24 201.27 143.24C200.294 143.24 199.614 142.616 199.23 141.368L198.75 139.784ZM205.374 128.48C205.374 126.64 206.022 125.72 207.318 125.72C208.614 125.72 209.262 126.64 209.262 128.48V136.472L216.438 126.992C216.758 126.576 217.07 126.264 217.374 126.056C217.694 125.832 218.07 125.72 218.502 125.72C219.126 125.72 219.582 125.944 219.87 126.392C220.158 126.824 220.302 127.472 220.302 128.336V140.456C220.302 142.296 219.654 143.216 218.358 143.216C217.062 143.216 216.414 142.296 216.414 140.456V132.608L209.382 141.896C209.014 142.392 208.654 142.752 208.302 142.976C207.95 143.2 207.566 143.312 207.15 143.312C206.526 143.312 206.07 143.112 205.782 142.712C205.51 142.312 205.374 141.704 205.374 140.888V128.48ZM212.838 124.328C212.246 124.328 211.702 124.248 211.206 124.088C210.726 123.912 210.31 123.688 209.958 123.416C209.622 123.128 209.358 122.816 209.166 122.48C208.974 122.128 208.878 121.768 208.878 121.4C208.878 120.984 208.982 120.664 209.19 120.44C209.414 120.2 209.726 120.08 210.126 120.08C210.51 120.08 210.774 120.176 210.918 120.368C211.078 120.544 211.23 120.736 211.374 120.944C211.55 121.216 211.742 121.4 211.95 121.496C212.174 121.592 212.47 121.64 212.838 121.64C213.158 121.64 213.422 121.6 213.63 121.52C213.854 121.44 214.054 121.288 214.23 121.064C214.31 120.952 214.382 120.84 214.446 120.728C214.526 120.616 214.606 120.512 214.686 120.416C214.782 120.32 214.894 120.24 215.022 120.176C215.15 120.112 215.318 120.08 215.526 120.08C215.926 120.08 216.238 120.2 216.462 120.44C216.686 120.664 216.798 120.984 216.798 121.4C216.798 121.768 216.702 122.128 216.51 122.48C216.318 122.832 216.046 123.144 215.694 123.416C215.342 123.688 214.918 123.912 214.422 124.088C213.942 124.248 213.414 124.328 212.838 124.328ZM232.231 129.56H229.951L227.455 140.552C227.375 140.936 227.247 141.304 227.071 141.656C226.895 141.992 226.671 142.296 226.399 142.568C226.143 142.84 225.839 143.056 225.487 143.216C225.151 143.376 224.767 143.456 224.335 143.456C223.663 143.456 223.111 143.296 222.679 142.976C222.247 142.64 222.031 142.144 222.031 141.488C222.031 141.104 222.127 140.816 222.319 140.624C222.495 140.432 222.703 140.248 222.943 140.072C223.199 139.88 223.447 139.656 223.687 139.4C223.927 139.128 224.111 138.736 224.239 138.224L226.591 128.216C226.703 127.768 226.839 127.4 226.999 127.112C227.175 126.808 227.383 126.568 227.623 126.392C227.879 126.216 228.175 126.096 228.511 126.032C228.847 125.968 229.247 125.936 229.711 125.936H233.359C235.199 125.936 236.119 126.544 236.119 127.76V140.456C236.119 142.296 235.471 143.216 234.175 143.216C232.879 143.216 232.231 142.296 232.231 140.456V129.56Z" fill="#5E2A2B"/>
<g filter="url(#filter0_d)">
<rect x="96.064" y="0.742188" width="66.7578" height="66.7578" rx="4.5" fill="#5E2A2B"/>
<path d="M109.416 34.1209C109.416 32.2774 110.911 30.783 112.754 30.783L146.133 30.783C147.977 30.783 149.471 32.2774 149.471 34.1209C149.471 35.9643 147.977 37.4587 146.133 37.4587L112.754 37.4587C110.911 37.4587 109.416 35.9643 109.416 34.1209Z" fill="white"/>
<path d="M129.443 14.0933C131.286 14.0933 132.781 15.5877 132.781 17.4312L132.781 50.8101C132.781 52.6535 131.286 54.148 129.443 54.148C127.599 54.148 126.105 52.6535 126.105 50.8101L126.105 17.4312C126.105 15.5877 127.599 14.0933 129.443 14.0933Z" fill="white"/>
</g>
<defs>
<filter id="filter0_d" x="96.064" y="0.742188" width="66.7578" height="72.7578" filterUnits="userSpaceOnUse" color-interpolation-filters="sRGB">
<feFlood flood-opacity="0" result="BackgroundImageFix"/>
<feColorMatrix in="SourceAlpha" type="matrix" values="0 0 0 0 0 0 0 0 0 0 0 0 0 0 0 0 0 0 127 0"/>
<feOffset dy="6"/>
<feColorMatrix type="matrix" values="0 0 0 0 0 0 0 0 0 0 0 0 0 0 0 0 0 0 0.15 0"/>
<feBlend mode="normal" in2="BackgroundImageFix" result="effect1_dropShadow"/>
<feBlend mode="normal" in="SourceGraphic" in2="effect1_dropShadow" result="shape"/>
</filter>
</defs>
</svg>
